<?xml version="1.0" encoding="utf-8"?>
<!-- Generator: Adobe Illustrator 27.9.0, SVG Export Plug-In . SVG Version: 6.00 Build 0)  -->
<svg version="1.1" id="Calque_1" xmlns="http://www.w3.org/2000/svg" xmlns:xlink="http://www.w3.org/1999/xlink" x="0px" y="0px"
	 viewBox="0 0 38 38" style="enable-background:new 0 0 38 38;" xml:space="preserve">
<style type="text/css">
	.st0{fill:#9E1B42;stroke:#000000;stroke-width:0.4906;stroke-miterlimit:10;}
</style>
<ellipse class="st0" cx="19.11" cy="19" rx="19.01" ry="18.07"/>
<g>
	<rect x="12.23" y="7.48" width="0.57" height="20.1"/>
	<rect x="19.53" y="4.86" width="0.57" height="22.73"/>
	<rect x="27.49" y="7.48" width="0.57" height="20.1"/>
	<path d="M12.09,10.62c0,0-2.58,1.35-1.42,5.05h1.85C12.52,15.67,11.16,13.15,12.09,10.62z"/>
	<path d="M17.38,8.22c0,0-2.4,1.91-0.31,4.19h4.68c0,0-1.35-2.65,0.49-4.19H17.38z"/>
	<path d="M16.78,13.45c0,0-3.18,2.53-0.41,5.55h6.21c0,0-1.8-3.51,0.65-5.55H16.78z"/>
	<path d="M17.19,20.13c0,0-2.65,2.1-0.34,4.61h5.16c0,0-1.49-2.92,0.54-4.61H17.19z"/>
	<path d="M28.58,11.92c0,0,2.65,6.22,0.37,9.91h5.42C34.37,21.82,34.41,15.36,28.58,11.92z"/>
	<path d="M30.67,10.62c0,0,2.2,5.16,0.31,8.22h4.49C35.47,18.85,35.51,13.48,30.67,10.62z"/>
	<path d="M26.12,23.65c0,0,0.16,1.4-0.98,2.05c-0.9,0.52-7.69,0.42-10.55,0.36c-1.2-0.03-2.39-0.35-3.4-1.02
		c-0.5-0.33-0.96-0.74-1.24-1.23l-9.85-2.3c0,0,8.21,3.2,9.85,8.86h22.73c0,0,1.48-4.51,1.56-7.14L26.12,23.65z M28.88,24.38
		l-0.02-0.51l0.51-0.02l0.02,0.51L28.88,24.38z M29.8,24.33l-0.02-0.51l0.51-0.02l0.02,0.51L29.8,24.33z M30.72,24.29l-0.02-0.51
		l0.51-0.02l0.02,0.51L30.72,24.29z M31.65,24.26l-0.02-0.51l0.51-0.02l0.02,0.51L31.65,24.26z M32.57,24.22l-0.02-0.51l0.51-0.02
		l0.02,0.51L32.57,24.22z M33.49,24.17l-0.02-0.51l0.51-0.02l0.01,0.13c0,0.1-0.02,0.24-0.09,0.39L33.49,24.17z"/>
	<polygon points="20.34,5.24 20.34,6.59 24.39,5.91 	"/>
	<polygon points="13.12,7.76 13.12,9.12 17.17,8.44 	"/>
	<polygon points="28.35,7.76 28.35,9.12 32.4,8.44 	"/>
</g>
</svg>
