<?xml version="1.0" encoding="utf-8"?>
<!-- Generator: Adobe Illustrator 27.9.0, SVG Export Plug-In . SVG Version: 6.00 Build 0)  -->
<svg version="1.1" id="Calque_1" xmlns="http://www.w3.org/2000/svg" xmlns:xlink="http://www.w3.org/1999/xlink" x="0px" y="0px"
	 viewBox="0 0 38 38" style="enable-background:new 0 0 38 38;" xml:space="preserve">
<style type="text/css">
	.st0{fill:url(#SVGID_1_);stroke:#000000;stroke-width:0.4906;stroke-miterlimit:10;}
</style>
<g>
	<linearGradient id="SVGID_1_" gradientUnits="userSpaceOnUse" x1="-0.0112" y1="18.4325" x2="38.0112" y2="18.4325">
		<stop  offset="0.0352" style="stop-color:#28819E"/>
		<stop  offset="0.0475" style="stop-color:#4B8696"/>
		<stop  offset="0.0789" style="stop-color:#809482"/>
		<stop  offset="0.1112" style="stop-color:#A6A16E"/>
		<stop  offset="0.1437" style="stop-color:#C5AE57"/>
		<stop  offset="0.1766" style="stop-color:#DDB840"/>
		<stop  offset="0.21" style="stop-color:#EEC02A"/>
		<stop  offset="0.2444" style="stop-color:#F9C517"/>
		<stop  offset="0.2809" style="stop-color:#FDC70C"/>
		<stop  offset="0.6807" style="stop-color:#009EE2"/>
		<stop  offset="1" style="stop-color:#FFFFFF"/>
	</linearGradient>
	<ellipse class="st0" cx="19" cy="18.43" rx="19.01" ry="18.07"/>
	<g>
		<rect x="12.12" y="6.17" width="0.57" height="20.1"/>
		<rect x="19.42" y="3.54" width="0.57" height="22.73"/>
		<rect x="27.38" y="6.17" width="0.57" height="20.1"/>
		<path d="M11.97,9.31c0,0-2.58,1.35-1.42,5.05h1.85C12.4,14.35,11.05,11.83,11.97,9.31z"/>
		<path d="M17.27,6.91c0,0-2.4,1.91-0.31,4.19h4.68c0,0-1.35-2.65,0.49-4.19H17.27z"/>
		<path d="M16.66,12.13c0,0-3.18,2.53-0.41,5.55h6.21c0,0-1.8-3.51,0.65-5.55H16.66z"/>
		<path d="M17.08,18.82c0,0-2.65,2.1-0.34,4.61h5.16c0,0-1.49-2.92,0.54-4.61H17.08z"/>
		<path d="M28.47,10.6c0,0,2.65,6.22,0.37,9.91h5.42C34.25,20.51,34.29,14.05,28.47,10.6z"/>
		<path d="M30.56,9.31c0,0,2.2,5.16,0.31,8.22h4.49C35.36,17.53,35.39,12.17,30.56,9.31z"/>
		<path d="M26,22.33c0,0,0.16,1.4-0.98,2.05c-0.9,0.52-7.69,0.42-10.55,0.36c-1.2-0.03-2.39-0.35-3.4-1.02
			c-0.5-0.33-0.96-0.74-1.24-1.23l-9.85-2.3c0,0,8.21,3.2,9.85,8.86h22.73c0,0,1.48-4.51,1.56-7.14L26,22.33z M28.76,23.06
			l-0.02-0.51l0.51-0.02l0.02,0.51L28.76,23.06z M29.69,23.01l-0.02-0.51l0.51-0.02l0.02,0.51L29.69,23.01z M30.61,22.97l-0.02-0.51
			l0.51-0.02l0.02,0.51L30.61,22.97z M31.53,22.94l-0.02-0.51l0.51-0.02l0.02,0.51L31.53,22.94z M32.46,22.9l-0.02-0.51l0.51-0.02
			l0.02,0.51L32.46,22.9z M33.38,22.86l-0.02-0.51l0.51-0.02l0.01,0.13c0,0.1-0.02,0.24-0.09,0.39L33.38,22.86z"/>
		<polygon points="20.22,3.92 20.22,5.28 24.28,4.6 		"/>
		<polygon points="13.01,6.44 13.01,7.8 17.06,7.12 		"/>
		<polygon points="28.24,6.44 28.24,7.8 32.29,7.12 		"/>
	</g>
</g>
</svg>
