<svg width="36" height="29" viewBox="0 0 36 29" fill="none" xmlns="http://www.w3.org/2000/svg">
<g clip-path="url(#clip0_90_177)">
<path d="M11.1511 28.8915L17.8424 28.893L17.843 25.8394H16.0375V21.2517C16.0375 20.253 16.9011 19.4434 17.9664 19.4434C19.0317 19.4434 19.8954 20.253 19.8954 21.2517V25.8394H17.7205L17.7202 28.8937L24.3426 28.8921L24.3425 25.8194H22.7434V21.2604C22.7434 20.268 23.5518 19.4634 24.549 19.4634C25.5462 19.4634 26.3546 20.268 26.3546 21.2604V25.8194H24.2048L24.2047 28.8921H35.2153V28.7642H35.8934V27.7699L35.8263 27.7032L35.8858 27.6439V26.6571L35.833 26.6045L35.8916 26.5462V25.52L35.8424 25.471L35.8877 25.4259C35.8877 25.4259 35.8801 24.8394 35.8877 24.6589C35.8952 24.4785 35.7064 24.471 35.7064 24.471H34.8489V23.9785L34.762 23.892L34.8527 23.8018V23.1927L34.7734 23.1138L34.8678 23.0198V22.471L34.7847 22.3882L34.8905 22.283V21.7115L34.8244 21.6458L34.9018 21.5687V20.9408L34.8319 20.8713L34.9169 20.7867V20.1514L34.8414 20.0762L34.9282 19.9897V19.4408L34.8489 19.3619L34.9509 19.2604V18.6664L34.8791 18.595L34.966 18.5085V17.9672L34.8791 17.8807L34.9811 17.7792C34.9736 17.4408 35.2606 17.3882 35.2606 17.3882H35.4344V17.1626H34.8754V16.0649L35.0114 15.9296H35.1322L35.2078 15.7341H34.83V15.6438H34.6739L34.6638 12.5811V11.714L34.7645 11.6187L34.7948 11.2127L34.8854 11.0974L34.6573 11.1024L34.6638 10.6363L34.9613 10.4356L35.4393 9.80419L35.5351 9.60368L34.7766 9.60871L34.7745 9.14257L34.6487 9.14754C34.6487 9.14754 34.6462 8.65882 34.6689 8.47083C34.6915 8.28285 34.6336 8.19264 34.8149 8.0573C34.9962 7.92196 34.9131 7.77911 34.9131 7.77911L34.9811 7.62121H34.6865V7.27535L34.8678 7.0949V7.03474H34.6448V6.888L34.7769 6.75654V6.63601L34.9278 6.48586V6.3275L35.033 6.22272V6.13155L35.3267 5.83925V5.74714L35.5213 5.55352V5.42947L35.7063 5.24526V5.14752H34.6789V5.04225H34.7394V4.75653L34.6185 4.62119V3.68885L34.7394 3.50088V3.40314H33.7724V3.50088H30.743V3.43321H29.7382L29.232 4.39562H28.0611L27.7211 5.09488H27.5323L27.4794 5.24526H25.5227L20.9354 3.35052C20.9354 3.35052 21.1545 3.01968 20.9052 2.79413C20.6559 2.56859 20.6408 3.00466 20.2253 2.98963C19.8098 2.97461 20.2026 2.98212 19.9608 2.4182C19.7191 1.85428 19.432 2.4182 19.432 2.4182C19.432 2.4182 19.3489 2.62872 19.3791 2.76407C19.3791 2.76407 19.2809 2.43323 19.213 2.55354C19.145 2.67386 19.1525 2.17008 19.0241 2.32046C18.8957 2.47085 18.9561 1.84677 18.6464 1.98962L18.5935 2.05729V1.84677C18.5935 1.84677 18.7068 1.71894 18.6086 1.57609L18.7672 0.929479L18.6313 0.974592L18.6237 0.696399L18.4726 0.891898L18.3895 0.546035L18.246 1.31296L18.2233 0.485898L18.1175 0.666352L18.0092 0.346802L17.911 0.666352L17.8053 0.485898L17.7826 1.31296L17.6391 0.546035L17.556 0.891898L17.4049 0.696399L17.3973 0.974592L17.2613 0.929479L17.42 1.57609C17.3218 1.71894 17.4351 1.84677 17.4351 1.84677V2.05729L17.3822 1.98962C17.0725 1.84677 17.1329 2.47083 17.0045 2.32046C16.876 2.1701 16.8836 2.67386 16.8156 2.55354C16.7476 2.43323 16.6494 2.76407 16.6494 2.76407C16.6796 2.62872 16.5965 2.4182 16.5965 2.4182C16.5965 2.4182 16.3095 1.85428 16.0677 2.4182C15.826 2.98212 16.2188 2.97459 15.8033 2.98963C15.3878 3.00468 15.3727 2.56857 15.1234 2.79413C14.8741 3.0197 15.0932 3.35052 15.0932 3.35052L10.4773 5.24526H8.52064L8.46776 5.09488H8.2789L7.93894 4.39562H6.76798L6.26182 3.43321H5.25706V3.50088H2.22764V3.40314H1.26066V3.50088L1.38153 3.68885V4.62119L1.26066 4.75653V5.04225H1.3211V5.14752H0.293631V5.24526L0.478717 5.42947V5.55352L0.673249 5.74714V5.83925L0.966943 6.13155V6.22272L1.07223 6.3275V6.48586L1.22309 6.63601V6.75654L1.35517 6.888V7.03474H1.1322V7.0949L1.31351 7.27535V7.62121H1.01888L1.08687 7.77911C1.08687 7.77911 1.00376 7.92196 1.18508 8.0573C1.36639 8.19264 1.30846 8.28287 1.33112 8.47083C1.35379 8.6588 1.35127 9.14754 1.35127 9.14754L1.22546 9.14257L1.22341 9.60871L0.46488 9.60368L0.560675 9.80419L1.03871 10.4356L1.33618 10.6363L1.34268 11.1024L1.11457 11.0974L1.20522 11.2127L1.23544 11.6187L1.33616 11.714V12.5811L1.32609 15.6438H1.16996V15.7341H0.792219L0.867759 15.9296H0.988626L1.12461 16.0649V17.1626H0.565578V17.3882H0.739343C0.739343 17.3882 1.02643 17.4408 1.01886 17.7792L1.12084 17.8807L1.03395 17.9672V18.5085L1.12084 18.595L1.04907 18.6664V19.2604L1.15105 19.3619L1.07174 19.4408V19.9897L1.15862 20.0762L1.08308 20.1514V20.7867L1.16806 20.8713L1.09817 20.9408V21.5687L1.17561 21.6458L1.10952 21.7115V22.283L1.21529 22.3882L1.13218 22.471V23.0198L1.22661 23.1138L1.1473 23.1927V23.8018L1.23795 23.892L1.15107 23.9785V24.471H0.293631C0.293631 24.471 0.104771 24.4785 0.112319 24.6589C0.119866 24.8394 0.112319 25.4259 0.112319 25.4259L0.157647 25.471L0.108438 25.52V26.5462L0.167049 26.6045L0.114174 26.6571V27.6439L0.173701 27.7032L0.106626 27.7699V28.7642H0.784714V28.8921L11.2989 28.8926L11.2982 25.7993H9.69414V21.2404C9.69414 20.2479 10.5025 19.4434 11.4997 19.4434C12.4969 19.4434 13.3052 20.2479 13.3052 21.2404V25.7993H11.1505L11.1511 28.8915Z" fill="#022D3A" fill-opacity="0.8"/>
</g>
<defs>
<clipPath id="clip0_90_177">
<rect width="36" height="29" fill="white"/>
</clipPath>
</defs>
</svg>
