<svg width="834" height="1194" viewBox="0 0 834 1194" fill="none" xmlns="http://www.w3.org/2000/svg">
<g clip-path="url(#clip0_27_54)">
<rect width="834" height="1194" fill="white"/>
<rect x="-15" width="861" height="1194" fill="#022D3A" fill-opacity="0.933333"/>
<path d="M249.369 464C247.79 464 247.001 463.211 247.001 461.632V421.568C247.001 419.989 247.79 419.2 249.369 419.2H271.769C272.921 419.2 273.497 420.117 273.497 421.952V423.616C273.497 425.451 272.921 426.368 271.769 426.368H255.385V437.504H269.977C271.129 437.504 271.705 438.421 271.705 440.256V441.92C271.705 443.755 271.129 444.672 269.977 444.672H255.385V456.832H271.833C272.985 456.832 273.561 457.749 273.561 459.584V461.248C273.561 463.083 272.985 464 271.833 464H249.369ZM285.01 464.128C282.749 464.128 281.619 463.509 281.619 462.272V421.568C281.619 419.989 282.387 419.2 283.923 419.2H295.827C301.16 419.2 305.107 420.181 307.667 422.144C310.269 424.107 311.571 427.051 311.571 430.976C311.571 433.536 310.888 435.691 309.523 437.44C308.157 439.189 306.365 440.512 304.147 441.408V441.664C305.128 442.005 306.045 442.795 306.899 444.032C307.752 445.227 308.499 446.635 309.139 448.256L314.579 461.824C314.749 462.336 314.835 462.699 314.835 462.912C314.835 463.723 313.683 464.128 311.379 464.128H309.458C308.605 464.128 307.88 464.043 307.283 463.872C306.685 463.659 306.301 463.339 306.131 462.912L301.139 450.368C300.413 448.661 299.539 447.467 298.515 446.784C297.491 446.059 295.848 445.696 293.587 445.696H290.003V462.272C290.003 463.509 288.872 464.128 286.611 464.128H285.01ZM290.003 438.464H296.915C298.024 438.464 299.027 438.187 299.923 437.632C300.861 437.035 301.587 436.267 302.099 435.328C302.653 434.347 302.931 433.28 302.931 432.128C302.931 430.251 302.333 428.821 301.139 427.84C299.987 426.859 298.429 426.368 296.467 426.368H290.003V438.464ZM324.073 464.128C321.812 464.128 320.681 463.509 320.681 462.272V421.568C320.681 419.989 321.449 419.2 322.985 419.2H334.889C340.222 419.2 344.169 420.181 346.729 422.144C349.332 424.107 350.633 427.051 350.633 430.976C350.633 433.536 349.95 435.691 348.585 437.44C347.22 439.189 345.428 440.512 343.209 441.408V441.664C344.19 442.005 345.108 442.795 345.961 444.032C346.814 445.227 347.561 446.635 348.201 448.256L353.641 461.824C353.812 462.336 353.897 462.699 353.897 462.912C353.897 463.723 352.745 464.128 350.441 464.128H348.521C347.668 464.128 346.942 464.043 346.345 463.872C345.748 463.659 345.364 463.339 345.193 462.912L340.201 450.368C339.476 448.661 338.601 447.467 337.577 446.784C336.553 446.059 334.91 445.696 332.649 445.696H329.065V462.272C329.065 463.509 327.934 464.128 325.673 464.128H324.073ZM329.065 438.464H335.977C337.086 438.464 338.089 438.187 338.985 437.632C339.924 437.035 340.649 436.267 341.161 435.328C341.716 434.347 341.993 433.28 341.993 432.128C341.993 430.251 341.396 428.821 340.201 427.84C339.049 426.859 337.492 426.368 335.529 426.368H329.065V438.464ZM362.432 464C360.853 464 360.064 463.211 360.064 461.632V421.568C360.064 419.989 360.853 419.2 362.432 419.2H384.832C385.984 419.2 386.56 420.117 386.56 421.952V423.616C386.56 425.451 385.984 426.368 384.832 426.368H368.448V437.504H383.04C384.192 437.504 384.768 438.421 384.768 440.256V441.92C384.768 443.755 384.192 444.672 383.04 444.672H368.448V456.832H384.896C386.048 456.832 386.624 457.749 386.624 459.584V461.248C386.624 463.083 386.048 464 384.896 464H362.432ZM412.409 464.448C406.606 464.448 402.126 463.125 398.969 460.48C395.812 457.792 394.233 454.037 394.233 449.216V420.928C394.233 419.691 395.364 419.072 397.625 419.072H399.225C401.486 419.072 402.617 419.691 402.617 420.928V448.896C402.617 450.517 403.022 451.968 403.833 453.248C404.686 454.528 405.86 455.531 407.353 456.256C408.846 456.939 410.532 457.28 412.409 457.28C414.329 457.28 416.014 456.939 417.465 456.256C418.958 455.531 420.132 454.528 420.985 453.248C421.838 451.968 422.265 450.517 422.265 448.896V420.928C422.265 419.691 423.396 419.072 425.657 419.072H427.193C429.454 419.072 430.585 419.691 430.585 420.928V449.216C430.585 454.037 428.985 457.792 425.785 460.48C422.628 463.125 418.169 464.448 412.409 464.448ZM443.635 464.128C441.374 464.128 440.244 463.509 440.244 462.272V421.568C440.244 419.989 441.012 419.2 442.548 419.2H454.452C459.785 419.2 463.732 420.181 466.292 422.144C468.894 424.107 470.196 427.051 470.196 430.976C470.196 433.536 469.513 435.691 468.148 437.44C466.782 439.189 464.99 440.512 462.772 441.408V441.664C463.753 442.005 464.67 442.795 465.524 444.032C466.377 445.227 467.124 446.635 467.764 448.256L473.204 461.824C473.374 462.336 473.46 462.699 473.46 462.912C473.46 463.723 472.308 464.128 470.004 464.128H468.083C467.23 464.128 466.505 464.043 465.908 463.872C465.31 463.659 464.926 463.339 464.756 462.912L459.764 450.368C459.038 448.661 458.164 447.467 457.14 446.784C456.116 446.059 454.473 445.696 452.212 445.696H448.628V462.272C448.628 463.509 447.497 464.128 445.236 464.128H443.635ZM448.628 438.464H455.54C456.649 438.464 457.652 438.187 458.548 437.632C459.486 437.035 460.212 436.267 460.724 435.328C461.278 434.347 461.556 433.28 461.556 432.128C461.556 430.251 460.958 428.821 459.764 427.84C458.612 426.859 457.054 426.368 455.092 426.368H448.628V438.464ZM513.113 464.128C510.98 464.128 509.913 463.509 509.913 462.272V454.336H492.249C491.95 454.336 491.63 454.037 491.289 453.44C490.948 452.8 490.67 452.075 490.457 451.264C490.244 450.453 490.137 449.813 490.137 449.344C490.137 449.003 490.18 448.768 490.265 448.64L509.977 420.16C510.318 419.691 510.766 419.392 511.321 419.264C511.876 419.136 512.537 419.072 513.305 419.072H514.777C516.91 419.072 517.977 419.691 517.977 420.928V447.872H521.049C522.158 447.872 522.713 448.789 522.713 450.624V451.584C522.713 453.419 522.158 454.336 521.049 454.336H517.977V462.272C517.977 463.509 516.91 464.128 514.777 464.128H513.113ZM498.585 447.872H509.913V435.904C509.913 435.008 509.956 434.027 510.041 432.96C510.169 431.893 510.318 431.019 510.489 430.336L510.233 430.272L498.585 447.872ZM541.027 464.448C538.04 464.448 535.438 463.595 533.219 461.888C531 460.139 529.251 457.557 527.971 454.144C526.691 450.731 526.051 446.549 526.051 441.6C526.051 436.608 526.691 432.427 527.971 429.056C529.251 425.643 531 423.083 533.219 421.376C535.438 419.627 538.04 418.752 541.027 418.752C543.971 418.752 546.552 419.627 548.771 421.376C551.032 423.083 552.803 425.643 554.083 429.056C555.363 432.427 556.003 436.608 556.003 441.6C556.003 446.549 555.363 450.731 554.083 454.144C552.803 457.557 551.032 460.139 548.771 461.888C546.552 463.595 543.971 464.448 541.027 464.448ZM541.027 457.984C542.307 457.984 543.459 457.408 544.483 456.256C545.55 455.104 546.36 453.312 546.915 450.88C547.512 448.448 547.811 445.355 547.811 441.6C547.811 437.803 547.512 434.709 546.915 432.32C546.36 429.888 545.55 428.096 544.483 426.944C543.459 425.792 542.307 425.216 541.027 425.216C539.704 425.216 538.531 425.792 537.507 426.944C536.483 428.096 535.672 429.888 535.075 432.32C534.52 434.709 534.243 437.803 534.243 441.6C534.243 445.355 534.52 448.448 535.075 450.88C535.672 453.312 536.483 455.104 537.507 456.256C538.531 457.408 539.704 457.984 541.027 457.984ZM581.613 464.128C579.48 464.128 578.413 463.509 578.413 462.272V454.336H560.749C560.45 454.336 560.13 454.037 559.789 453.44C559.448 452.8 559.17 452.075 558.957 451.264C558.744 450.453 558.637 449.813 558.637 449.344C558.637 449.003 558.68 448.768 558.765 448.64L578.477 420.16C578.818 419.691 579.266 419.392 579.821 419.264C580.376 419.136 581.037 419.072 581.805 419.072H583.277C585.41 419.072 586.477 419.691 586.477 420.928V447.872H589.549C590.658 447.872 591.213 448.789 591.213 450.624V451.584C591.213 453.419 590.658 454.336 589.549 454.336H586.477V462.272C586.477 463.509 585.41 464.128 583.277 464.128H581.613ZM567.085 447.872H578.413V435.904C578.413 435.008 578.456 434.027 578.541 432.96C578.669 431.893 578.818 431.019 578.989 430.336L578.733 430.272L567.085 447.872Z" fill="white"/>
<path d="M262.132 548.08C260.718 548.08 260.012 547.693 260.012 546.92V521.48C260.012 520.493 260.492 520 261.452 520H269.772C270.625 520 271.585 520.107 272.652 520.32C273.745 520.507 274.772 520.893 275.732 521.48C276.718 522.04 277.518 522.88 278.132 524C278.745 525.12 279.052 526.6 279.052 528.44C279.052 529.96 278.812 531.24 278.332 532.28C277.878 533.293 277.278 534.12 276.532 534.76C275.812 535.373 275.038 535.853 274.212 536.2C273.385 536.52 272.612 536.747 271.892 536.88C271.172 536.987 270.598 537.04 270.172 537.04H265.252V546.92C265.252 547.693 264.545 548.08 263.132 548.08H262.132ZM265.252 532.52H269.732C270.105 532.52 270.518 532.467 270.972 532.36C271.452 532.253 271.892 532.053 272.292 531.76C272.692 531.467 273.025 531.053 273.292 530.52C273.558 529.987 273.692 529.293 273.692 528.44C273.692 527.347 273.465 526.52 273.012 525.96C272.558 525.4 272.012 525.013 271.372 524.8C270.758 524.587 270.145 524.48 269.532 524.48H265.252V532.52ZM287.043 548.28C284.963 548.28 283.403 547.747 282.363 546.68C281.323 545.587 280.803 544.16 280.803 542.4C280.803 541.28 281.03 540.267 281.483 539.36C281.936 538.453 282.63 537.68 283.563 537.04C284.523 536.373 285.776 535.88 287.323 535.56C288.87 535.213 290.736 535.027 292.923 535V533.48C292.923 532.68 292.643 532.04 292.083 531.56C291.55 531.08 290.643 530.84 289.363 530.84C288.323 530.84 287.416 530.96 286.643 531.2C285.87 531.44 285.243 531.68 284.763 531.92C284.31 532.16 284.003 532.28 283.843 532.28C283.603 532.28 283.336 532.093 283.043 531.72C282.75 531.347 282.496 530.933 282.283 530.48C282.096 530.027 282.003 529.693 282.003 529.48C282.003 529.053 282.336 528.64 283.003 528.24C283.67 527.813 284.576 527.467 285.723 527.2C286.896 526.933 288.19 526.8 289.603 526.8C291.55 526.8 293.136 527.08 294.363 527.64C295.59 528.173 296.496 528.933 297.083 529.92C297.67 530.88 297.963 532.013 297.963 533.32V541.36C297.963 542.64 298.003 543.653 298.083 544.4C298.163 545.12 298.243 545.667 298.323 546.04C298.403 546.387 298.443 546.667 298.443 546.88C298.443 547.093 298.296 547.28 298.003 547.44C297.71 547.573 297.35 547.693 296.923 547.8C296.496 547.88 296.083 547.947 295.683 548C295.283 548.027 294.976 548.04 294.763 548.04C294.363 548.04 294.07 547.893 293.883 547.6C293.696 547.28 293.563 546.907 293.483 546.48C293.403 546.027 293.323 545.627 293.243 545.28C293.003 545.573 292.616 545.96 292.083 546.44C291.55 546.92 290.87 547.347 290.043 547.72C289.216 548.093 288.216 548.28 287.043 548.28ZM288.403 544.24C289.416 544.24 290.296 543.987 291.043 543.48C291.816 542.947 292.443 542.32 292.923 541.6V538.56C291.936 538.56 291.016 538.613 290.163 538.72C289.336 538.827 288.59 539 287.923 539.24C287.283 539.48 286.79 539.827 286.443 540.28C286.096 540.707 285.923 541.253 285.923 541.92C285.923 542.64 286.123 543.213 286.523 543.64C286.95 544.04 287.576 544.24 288.403 544.24ZM311.2 556.48C309.253 556.48 307.6 556.28 306.24 555.88C304.907 555.507 303.893 554.907 303.2 554.08C302.507 553.28 302.16 552.267 302.16 551.04C302.16 549.973 302.48 549.027 303.12 548.2C303.76 547.373 304.64 546.733 305.76 546.28L305.8 546.16C305.267 545.84 304.853 545.413 304.56 544.88C304.267 544.347 304.12 543.733 304.12 543.04C304.12 542.267 304.32 541.573 304.72 540.96C305.147 540.347 305.72 539.813 306.44 539.36C305.4 538.827 304.587 538.093 304 537.16C303.44 536.2 303.16 535.053 303.16 533.72C303.16 532.147 303.507 530.853 304.2 529.84C304.92 528.827 305.907 528.067 307.16 527.56C308.44 527.053 309.88 526.8 311.48 526.8C311.987 526.8 312.48 526.827 312.96 526.88C313.44 526.907 313.893 526.973 314.32 527.08H321.04C321.76 527.08 322.12 527.653 322.12 528.8V529.4C322.12 530.493 321.813 531.04 321.2 531.04C320.987 531.04 320.613 531.013 320.08 530.96C319.573 530.88 319.173 530.8 318.88 530.72L318.84 530.84C319.16 531.24 319.4 531.693 319.56 532.2C319.747 532.68 319.84 533.187 319.84 533.72C319.84 535.187 319.493 536.413 318.8 537.4C318.133 538.387 317.187 539.133 315.96 539.64C314.76 540.147 313.36 540.4 311.76 540.4C310.56 540.4 309.747 540.547 309.32 540.84C308.893 541.107 308.68 541.52 308.68 542.08C308.68 542.667 308.987 543.093 309.6 543.36C310.213 543.627 310.987 543.813 311.92 543.92C312.88 544.027 313.893 544.16 314.96 544.32C316.053 544.507 317.08 544.8 318.04 545.2C319 545.573 319.773 546.133 320.36 546.88C320.947 547.627 321.24 548.653 321.24 549.96C321.24 551.293 320.84 552.44 320.04 553.4C319.24 554.387 318.08 555.147 316.56 555.68C315.067 556.213 313.28 556.48 311.2 556.48ZM311.64 552.48C313.24 552.48 314.427 552.267 315.2 551.84C315.973 551.44 316.36 550.867 316.36 550.12C316.36 549.64 316.173 549.267 315.8 549C315.453 548.733 314.96 548.52 314.32 548.36C313.68 548.227 312.92 548.107 312.04 548C311.187 547.893 310.253 547.773 309.24 547.64C308.573 547.907 308.027 548.253 307.6 548.68C307.2 549.133 307 549.64 307 550.2C307 550.947 307.36 551.507 308.08 551.88C308.827 552.28 310.013 552.48 311.64 552.48ZM311.48 536.64C312.467 536.64 313.307 536.413 314 535.96C314.693 535.507 315.04 534.72 315.04 533.6C315.04 532.507 314.693 531.733 314 531.28C313.307 530.8 312.467 530.56 311.48 530.56C310.493 530.56 309.653 530.8 308.96 531.28C308.267 531.733 307.92 532.507 307.92 533.6C307.92 534.72 308.267 535.507 308.96 535.96C309.653 536.413 310.493 536.64 311.48 536.64ZM333.975 548.28C330.455 548.28 327.868 547.347 326.215 545.48C324.561 543.613 323.735 541.013 323.735 537.68C323.735 535.12 324.121 533.04 324.895 531.44C325.695 529.84 326.815 528.667 328.255 527.92C329.695 527.173 331.388 526.8 333.335 526.8C335.361 526.8 336.988 527.253 338.215 528.16C339.468 529.04 340.388 530.267 340.975 531.84C341.561 533.387 341.855 535.16 341.855 537.16C341.855 537.347 341.735 537.613 341.495 537.96C341.281 538.307 341.028 538.613 340.735 538.88C340.441 539.147 340.215 539.28 340.055 539.28H329.015C329.148 541.067 329.655 542.347 330.535 543.12C331.415 543.867 332.615 544.24 334.135 544.24C335.095 544.24 335.921 544.12 336.615 543.88C337.335 543.64 337.921 543.413 338.375 543.2C338.855 542.96 339.175 542.84 339.335 542.84C339.575 542.84 339.841 543.027 340.135 543.4C340.428 543.747 340.668 544.133 340.855 544.56C341.068 544.96 341.175 545.28 341.175 545.52C341.175 545.947 340.935 546.333 340.455 546.68C340.001 547 339.401 547.293 338.655 547.56C337.908 547.8 337.121 547.973 336.295 548.08C335.468 548.213 334.695 548.28 333.975 548.28ZM329.015 535.68H336.855C336.855 534.187 336.561 533.013 335.975 532.16C335.415 531.28 334.521 530.84 333.295 530.84C332.148 530.84 331.188 531.213 330.415 531.96C329.668 532.707 329.201 533.947 329.015 535.68ZM357.986 548.08C356.573 548.08 355.866 547.693 355.866 546.92V528.16C355.866 527.387 356.573 527 357.986 527H358.786C360.2 527 360.906 527.387 360.906 528.16V546.92C360.906 547.693 360.2 548.08 358.786 548.08H357.986ZM358.386 524.76C357.48 524.76 356.826 524.667 356.426 524.48C356.026 524.267 355.826 523.973 355.826 523.6V520.72C355.826 520.347 356.026 520.067 356.426 519.88C356.826 519.693 357.48 519.6 358.386 519.6C359.293 519.6 359.946 519.693 360.346 519.88C360.746 520.067 360.946 520.347 360.946 520.72V523.6C360.946 523.973 360.746 524.267 360.346 524.48C359.946 524.667 359.293 524.76 358.386 524.76ZM368.572 548.08C367.159 548.08 366.452 547.693 366.452 546.92V533.8C366.452 532.547 366.412 531.56 366.332 530.84C366.252 530.12 366.172 529.573 366.092 529.2C366.012 528.827 365.972 528.547 365.972 528.36C365.972 528.147 366.119 527.973 366.412 527.84C366.706 527.68 367.066 527.56 367.492 527.48C367.919 527.373 368.332 527.307 368.732 527.28C369.159 527.227 369.466 527.2 369.652 527.2C370.052 527.2 370.346 527.347 370.532 527.64C370.719 527.933 370.852 528.28 370.932 528.68C371.039 529.08 371.132 529.453 371.212 529.8C371.879 528.973 372.732 528.267 373.772 527.68C374.839 527.093 375.999 526.8 377.252 526.8C379.279 526.8 380.799 527.347 381.812 528.44C382.826 529.507 383.332 531.12 383.332 533.28V546.92C383.332 547.693 382.626 548.08 381.212 548.08H380.452C379.039 548.08 378.332 547.693 378.332 546.92V533.96C378.332 533.027 378.092 532.307 377.612 531.8C377.132 531.267 376.372 531 375.332 531C374.479 531 373.719 531.267 373.052 531.8C372.412 532.333 371.892 532.893 371.492 533.48V546.92C371.492 547.693 370.786 548.08 369.372 548.08H368.572ZM394.998 548.28C394.225 548.28 393.491 548.173 392.798 547.96C392.131 547.747 391.545 547.4 391.038 546.92C390.531 546.44 390.131 545.813 389.838 545.04C389.545 544.24 389.398 543.28 389.398 542.16V531.12H388.318C387.598 531.12 387.238 530.547 387.238 529.4V528.8C387.238 527.653 387.598 527.08 388.318 527.08H389.398L389.918 523.16C390.025 522.387 390.638 522 391.758 522H392.718C393.865 522 394.438 522.387 394.438 523.16V527.08H396.878C397.598 527.08 397.958 527.653 397.958 528.8V529.4C397.958 530.547 397.598 531.12 396.878 531.12H394.438V542.08C394.438 542.88 394.585 543.44 394.878 543.76C395.171 544.08 395.585 544.24 396.118 544.24C396.465 544.24 396.731 544.213 396.918 544.16C397.131 544.107 397.305 544.08 397.438 544.08C397.678 544.08 397.878 544.267 398.038 544.64C398.198 545.013 398.318 545.413 398.398 545.84C398.505 546.24 398.558 546.493 398.558 546.6C398.558 547.107 398.345 547.493 397.918 547.76C397.491 548 396.998 548.147 396.438 548.2C395.905 548.253 395.425 548.28 394.998 548.28ZM404.59 548.08C403.177 548.08 402.47 547.693 402.47 546.92V533.8C402.47 532.547 402.43 531.56 402.35 530.84C402.27 530.12 402.19 529.573 402.11 529.2C402.03 528.827 401.99 528.547 401.99 528.36C401.99 528.147 402.137 527.973 402.43 527.84C402.723 527.68 403.083 527.56 403.51 527.48C403.937 527.373 404.35 527.307 404.75 527.28C405.15 527.227 405.457 527.2 405.67 527.2C406.043 527.2 406.323 527.347 406.51 527.64C406.723 527.933 406.87 528.28 406.95 528.68C407.03 529.08 407.11 529.453 407.19 529.8C407.697 528.973 408.297 528.267 408.99 527.68C409.71 527.093 410.59 526.8 411.63 526.8C412.563 526.8 413.177 526.973 413.47 527.32C413.79 527.667 413.95 528.147 413.95 528.76C413.95 529 413.897 529.36 413.79 529.84C413.71 530.293 413.59 530.72 413.43 531.12C413.27 531.493 413.07 531.68 412.83 531.68C412.563 531.68 412.297 531.627 412.03 531.52C411.763 531.387 411.377 531.32 410.87 531.32C410.283 531.32 409.75 531.467 409.27 531.76C408.79 532.053 408.39 532.373 408.07 532.72C407.777 533.04 407.59 533.293 407.51 533.48V546.92C407.51 547.693 406.79 548.08 405.35 548.08H404.59ZM424.897 548.28C421.777 548.28 419.39 547.36 417.737 545.52C416.11 543.68 415.297 541.027 415.297 537.56C415.297 534.067 416.11 531.4 417.737 529.56C419.39 527.72 421.777 526.8 424.897 526.8C427.99 526.8 430.337 527.72 431.937 529.56C433.564 531.4 434.377 534.067 434.377 537.56C434.377 541.027 433.577 543.68 431.977 545.52C430.377 547.36 428.017 548.28 424.897 548.28ZM424.857 544.24C426.35 544.24 427.444 543.68 428.137 542.56C428.857 541.44 429.217 539.76 429.217 537.52C429.217 535.307 428.857 533.64 428.137 532.52C427.444 531.4 426.35 530.84 424.857 530.84C423.337 530.84 422.217 531.4 421.497 532.52C420.804 533.613 420.457 535.293 420.457 537.56C420.457 539.773 420.804 541.44 421.497 542.56C422.217 543.68 423.337 544.24 424.857 544.24ZM444.91 548.28C442.91 548.28 441.39 547.747 440.35 546.68C439.337 545.587 438.83 543.96 438.83 541.8V528.16C438.83 527.387 439.537 527 440.95 527H441.71C443.124 527 443.83 527.387 443.83 528.16V541.12C443.83 542.053 444.07 542.787 444.55 543.32C445.03 543.827 445.79 544.08 446.83 544.08C447.684 544.08 448.43 543.813 449.07 543.28C449.737 542.747 450.27 542.187 450.67 541.6V528.16C450.67 527.387 451.377 527 452.79 527H453.59C455.004 527 455.71 527.387 455.71 528.16V541.36C455.71 542.64 455.75 543.653 455.83 544.4C455.91 545.12 455.99 545.667 456.07 546.04C456.15 546.387 456.19 546.667 456.19 546.88C456.19 547.093 456.044 547.28 455.75 547.44C455.457 547.573 455.097 547.693 454.67 547.8C454.244 547.88 453.817 547.947 453.39 548C452.99 548.027 452.697 548.04 452.51 548.04C452.11 548.04 451.817 547.893 451.63 547.6C451.444 547.28 451.297 546.907 451.19 546.48C451.11 546.027 451.03 545.627 450.95 545.28C450.284 546.08 449.417 546.787 448.35 547.4C447.31 547.987 446.164 548.28 444.91 548.28ZM467.536 548.08C467.029 548.08 466.589 548.027 466.216 547.92C465.869 547.813 465.643 547.613 465.536 547.32L459.136 528.48C459.109 528.373 459.069 528.267 459.016 528.16C458.989 528.027 458.976 527.907 458.976 527.8C458.976 527.267 459.709 527 461.176 527H462.136C462.643 527 463.069 527.053 463.416 527.16C463.789 527.267 464.029 527.467 464.136 527.76L466.856 536.32C467.176 537.333 467.456 538.373 467.696 539.44C467.963 540.48 468.163 541.4 468.296 542.2H468.456C468.563 541.4 468.736 540.48 468.976 539.44C469.216 538.4 469.536 537.28 469.936 536.08L472.576 527.76C472.683 527.467 472.909 527.267 473.256 527.16C473.629 527.053 474.083 527 474.616 527H475.296C476.709 527 477.416 527.267 477.416 527.8C477.416 527.987 477.376 528.213 477.296 528.48L470.896 547.32C470.789 547.613 470.549 547.813 470.176 547.92C469.829 548.027 469.389 548.08 468.856 548.08H467.536ZM485.52 548.28C483.44 548.28 481.88 547.747 480.84 546.68C479.8 545.587 479.28 544.16 479.28 542.4C479.28 541.28 479.506 540.267 479.96 539.36C480.413 538.453 481.106 537.68 482.04 537.04C483 536.373 484.253 535.88 485.8 535.56C487.346 535.213 489.213 535.027 491.4 535V533.48C491.4 532.68 491.12 532.04 490.56 531.56C490.026 531.08 489.12 530.84 487.84 530.84C486.8 530.84 485.893 530.96 485.12 531.2C484.346 531.44 483.72 531.68 483.24 531.92C482.786 532.16 482.48 532.28 482.32 532.28C482.08 532.28 481.813 532.093 481.52 531.72C481.226 531.347 480.973 530.933 480.76 530.48C480.573 530.027 480.48 529.693 480.48 529.48C480.48 529.053 480.813 528.64 481.48 528.24C482.146 527.813 483.053 527.467 484.2 527.2C485.373 526.933 486.666 526.8 488.08 526.8C490.026 526.8 491.613 527.08 492.84 527.64C494.066 528.173 494.973 528.933 495.56 529.92C496.146 530.88 496.44 532.013 496.44 533.32V541.36C496.44 542.64 496.48 543.653 496.56 544.4C496.64 545.12 496.72 545.667 496.8 546.04C496.88 546.387 496.92 546.667 496.92 546.88C496.92 547.093 496.773 547.28 496.48 547.44C496.186 547.573 495.826 547.693 495.4 547.8C494.973 547.88 494.56 547.947 494.16 548C493.76 548.027 493.453 548.04 493.24 548.04C492.84 548.04 492.546 547.893 492.36 547.6C492.173 547.28 492.04 546.907 491.96 546.48C491.88 546.027 491.8 545.627 491.72 545.28C491.48 545.573 491.093 545.96 490.56 546.44C490.026 546.92 489.346 547.347 488.52 547.72C487.693 548.093 486.693 548.28 485.52 548.28ZM486.88 544.24C487.893 544.24 488.773 543.987 489.52 543.48C490.293 542.947 490.92 542.32 491.4 541.6V538.56C490.413 538.56 489.493 538.613 488.64 538.72C487.813 538.827 487.066 539 486.4 539.24C485.76 539.48 485.266 539.827 484.92 540.28C484.573 540.707 484.4 541.253 484.4 541.92C484.4 542.64 484.6 543.213 485 543.64C485.426 544.04 486.053 544.24 486.88 544.24ZM512.636 548.28C511.436 548.28 510.343 548.013 509.356 547.48C508.396 546.92 507.596 546.187 506.956 545.28C506.823 546.027 506.623 546.68 506.356 547.24C506.196 547.587 505.983 547.813 505.716 547.92C505.45 548.027 505.063 548.08 504.556 548.08H504.196C502.89 548.08 502.236 547.693 502.236 546.92V519C502.236 518.253 502.943 517.88 504.356 517.88H505.116C506.53 517.88 507.236 518.253 507.236 519V528.32C507.796 527.893 508.45 527.533 509.196 527.24C509.97 526.947 510.876 526.8 511.916 526.8C514.476 526.8 516.503 527.76 517.996 529.68C519.49 531.573 520.236 534.187 520.236 537.52C520.236 539.76 519.916 541.693 519.276 543.32C518.636 544.92 517.743 546.147 516.596 547C515.476 547.853 514.156 548.28 512.636 548.28ZM511.276 544.12C512.53 544.12 513.476 543.547 514.116 542.4C514.756 541.253 515.076 539.6 515.076 537.44C515.076 535.307 514.716 533.68 513.996 532.56C513.303 531.44 512.236 530.88 510.796 530.88C510.103 530.88 509.45 530.987 508.836 531.2C508.25 531.387 507.716 531.653 507.236 532V541.6C507.77 542.32 508.37 542.92 509.036 543.4C509.73 543.88 510.476 544.12 511.276 544.12ZM530.49 548.28C529.69 548.28 528.943 548.173 528.25 547.96C527.583 547.747 526.997 547.4 526.49 546.92C525.983 546.44 525.583 545.813 525.29 545.04C525.023 544.24 524.89 543.28 524.89 542.16V519C524.89 518.253 525.597 517.88 527.01 517.88H527.77C529.183 517.88 529.89 518.253 529.89 519V542.08C529.89 542.88 530.037 543.44 530.33 543.76C530.65 544.08 531.077 544.24 531.61 544.24C531.93 544.24 532.183 544.213 532.37 544.16C532.583 544.107 532.757 544.08 532.89 544.08C533.13 544.08 533.33 544.267 533.49 544.64C533.65 545.013 533.77 545.413 533.85 545.84C533.957 546.24 534.01 546.493 534.01 546.6C534.01 547.107 533.797 547.493 533.37 547.76C532.943 548 532.45 548.147 531.89 548.2C531.357 548.253 530.89 548.28 530.49 548.28ZM544.717 548.28C541.197 548.28 538.61 547.347 536.957 545.48C535.303 543.613 534.477 541.013 534.477 537.68C534.477 535.12 534.863 533.04 535.637 531.44C536.437 529.84 537.557 528.667 538.997 527.92C540.437 527.173 542.13 526.8 544.077 526.8C546.103 526.8 547.73 527.253 548.957 528.16C550.21 529.04 551.13 530.267 551.717 531.84C552.303 533.387 552.597 535.16 552.597 537.16C552.597 537.347 552.477 537.613 552.237 537.96C552.023 538.307 551.77 538.613 551.477 538.88C551.183 539.147 550.957 539.28 550.797 539.28H539.757C539.89 541.067 540.397 542.347 541.277 543.12C542.157 543.867 543.357 544.24 544.877 544.24C545.837 544.24 546.663 544.12 547.357 543.88C548.077 543.64 548.663 543.413 549.117 543.2C549.597 542.96 549.917 542.84 550.077 542.84C550.317 542.84 550.583 543.027 550.877 543.4C551.17 543.747 551.41 544.133 551.597 544.56C551.81 544.96 551.917 545.28 551.917 545.52C551.917 545.947 551.677 546.333 551.197 546.68C550.743 547 550.143 547.293 549.397 547.56C548.65 547.8 547.863 547.973 547.037 548.08C546.21 548.213 545.437 548.28 544.717 548.28ZM539.757 535.68H547.597C547.597 534.187 547.303 533.013 546.717 532.16C546.157 531.28 545.263 530.84 544.037 530.84C542.89 530.84 541.93 531.213 541.157 531.96C540.41 532.707 539.943 533.947 539.757 535.68ZM557.639 548.08C556.226 548.08 555.519 547.693 555.519 546.92V543.6C555.519 542.853 556.226 542.48 557.639 542.48H558.719C560.133 542.48 560.839 542.853 560.839 543.6V546.92C560.839 547.693 560.133 548.08 558.719 548.08H557.639ZM565.569 548.08C564.156 548.08 563.449 547.693 563.449 546.92V543.6C563.449 542.853 564.156 542.48 565.569 542.48H566.649C568.062 542.48 568.769 542.853 568.769 543.6V546.92C568.769 547.693 568.062 548.08 566.649 548.08H565.569ZM573.499 548.08C572.085 548.08 571.379 547.693 571.379 546.92V543.6C571.379 542.853 572.085 542.48 573.499 542.48H574.579C575.992 542.48 576.699 542.853 576.699 543.6V546.92C576.699 547.693 575.992 548.08 574.579 548.08H573.499Z" fill="white"/>
<path d="M418.071 689C420.648 688.844 423.221 688.855 425.724 688.131C429.532 687.031 431.267 684.714 431.763 681.053C432.375 676.543 431.502 672.223 429.778 668.052C428.768 665.606 427.445 663.348 425.646 661.408C423.418 659.005 420.823 657.316 417.361 657.588C415.18 657.759 413.354 658.767 411.754 660.189C408.492 663.088 406.598 666.829 405.332 670.935C404.458 673.77 404.057 676.677 404.226 679.644C404.366 682.088 404.919 684.399 406.773 686.171C408.235 687.569 410.069 688.218 412.011 688.477C414.019 688.744 416.05 688.833 418.071 689Z" fill="white"/>
<path d="M462 632.918C462 631.376 461.162 630.198 459.757 629.62C453.354 626.986 447.417 623.579 442.226 618.936C440.317 617.229 438.543 615.406 437.013 613.344C435.938 611.895 433.81 611.573 432.349 612.596C430.733 613.726 430.28 615.775 431.354 617.374C432.797 619.524 434.575 621.389 436.456 623.154C440.16 626.629 444.212 629.642 448.704 632.006C451.527 633.491 454.422 634.848 457.34 636.138C459.556 637.117 462 635.359 462 632.918Z" fill="white"/>
<path d="M373 633.279C373.015 635.666 375.45 637.344 377.667 636.473C384.24 633.888 390.307 630.414 395.775 625.929C398.645 623.575 401.292 620.982 403.489 617.961C404.369 616.75 404.459 615.206 403.714 614.007C402.925 612.737 401.546 612.115 400.055 612.399C399.183 612.565 398.466 613.012 397.931 613.74C395.742 616.717 393.043 619.178 390.157 621.448C386.141 624.607 381.727 627.092 377.076 629.17C376.296 629.518 375.489 629.811 374.735 630.207C373.515 630.847 373.013 631.936 373 633.279Z" fill="white"/>
<path d="M442.375 636.684C436.146 636.828 430.8 637.849 425.764 640.232C424.036 641.049 423.356 643.202 424.197 644.861C425.087 646.617 427.055 647.247 428.869 646.473C430.234 645.89 431.643 645.391 433.066 644.971C435.314 644.308 437.617 643.972 439.964 643.798C443.714 643.518 447.317 644.078 450.836 645.318C451.786 645.653 452.704 646.085 453.63 646.488C455.441 647.277 457.339 646.593 458.204 644.831C459.026 643.157 458.385 641.109 456.69 640.233C453.661 638.667 450.444 637.643 447.077 637.15C445.296 636.889 443.491 636.791 442.375 636.684Z" fill="white"/>
<path d="M395.28 636.996C388.789 637.13 383.588 638.182 378.634 640.379C376.821 641.183 375.963 643.24 376.703 644.943C377.516 646.815 379.491 647.671 381.36 646.817C383.865 645.673 386.479 644.892 389.17 644.448C395.017 643.485 400.686 644.098 406.065 646.732C408.201 647.778 410.545 646.67 411.077 644.357C411.42 642.866 410.713 641.289 409.328 640.577C406.726 639.238 404 638.217 401.114 637.736C398.829 637.355 396.515 637.148 395.28 636.996Z" fill="white"/>
<path d="M1040.69 1893.44C836.044 2172.24 439.091 2228.64 154.072 2019.42C-130.947 1810.21 -196.1 1414.59 8.54776 1135.8C213.196 857.007 610.149 800.604 895.168 1009.82C1180.19 1219.04 1245.34 1614.65 1040.69 1893.44Z" fill="url(#paint0_linear_27_54)"/>
<path d="M867 -145.5C867 97.7814 665.528 295 417 295C168.472 295 -33 97.7814 -33 -145.5C-33 -388.781 168.472 -586 417 -586C665.528 -586 867 -388.781 867 -145.5Z" fill="url(#paint1_linear_27_54)"/>
</g>
<defs>
<linearGradient id="paint0_linear_27_54" x1="895.168" y1="1009.82" x2="154.072" y2="2019.42" gradientUnits="userSpaceOnUse">
<stop stop-color="#FFCF0D"/>
<stop offset="1" stop-color="#FED83C" stop-opacity="0"/>
</linearGradient>
<linearGradient id="paint1_linear_27_54" x1="417" y1="-586" x2="417" y2="295" gradientUnits="userSpaceOnUse">
<stop offset="0.34375" stop-color="#FFCF0D"/>
<stop offset="1" stop-color="#FED83C" stop-opacity="0"/>
</linearGradient>
<clipPath id="clip0_27_54">
<rect width="834" height="1194" fill="white"/>
</clipPath>
</defs>
</svg>
