<svg width="360" height="800" viewBox="0 0 360 800" fill="none" xmlns="http://www.w3.org/2000/svg">
<g clip-path="url(#clip0_7_34)">
<rect width="360" height="800" fill="white"/>
<rect width="360" height="806" fill="#01394A" fill-opacity="0.933333"/>
<path d="M75.2306 318C74.244 318 73.7506 317.507 73.7506 316.52V291.48C73.7506 290.493 74.244 290 75.2306 290H89.2306C89.9506 290 90.3106 290.573 90.3106 291.72V292.76C90.3106 293.907 89.9506 294.48 89.2306 294.48H78.9906V301.44H88.1106C88.8306 301.44 89.1906 302.013 89.1906 303.16V304.2C89.1906 305.347 88.8306 305.92 88.1106 305.92H78.9906V313.52H89.2706C89.9906 313.52 90.3506 314.093 90.3506 315.24V316.28C90.3506 317.427 89.9906 318 89.2706 318H75.2306ZM97.5066 318.08C96.0932 318.08 95.3866 317.693 95.3866 316.92V291.48C95.3866 290.493 95.8666 290 96.8266 290H104.267C107.6 290 110.067 290.613 111.667 291.84C113.293 293.067 114.107 294.907 114.107 297.36C114.107 298.96 113.68 300.307 112.827 301.4C111.973 302.493 110.853 303.32 109.467 303.88V304.04C110.08 304.253 110.653 304.747 111.187 305.52C111.72 306.267 112.187 307.147 112.587 308.16L115.987 316.64C116.093 316.96 116.147 317.187 116.147 317.32C116.147 317.827 115.427 318.08 113.987 318.08H112.787C112.253 318.08 111.8 318.027 111.427 317.92C111.053 317.787 110.813 317.587 110.707 317.32L107.587 309.48C107.133 308.413 106.587 307.667 105.947 307.24C105.307 306.787 104.28 306.56 102.867 306.56H100.627V316.92C100.627 317.693 99.9199 318.08 98.5066 318.08H97.5066ZM100.627 302.04H104.947C105.64 302.04 106.267 301.867 106.827 301.52C107.413 301.147 107.867 300.667 108.187 300.08C108.533 299.467 108.707 298.8 108.707 298.08C108.707 296.907 108.333 296.013 107.587 295.4C106.867 294.787 105.893 294.48 104.667 294.48H100.627V302.04ZM121.921 318.08C120.507 318.08 119.801 317.693 119.801 316.92V291.48C119.801 290.493 120.281 290 121.241 290H128.681C132.014 290 134.481 290.613 136.081 291.84C137.707 293.067 138.521 294.907 138.521 297.36C138.521 298.96 138.094 300.307 137.241 301.4C136.387 302.493 135.267 303.32 133.881 303.88V304.04C134.494 304.253 135.067 304.747 135.601 305.52C136.134 306.267 136.601 307.147 137.001 308.16L140.401 316.64C140.507 316.96 140.561 317.187 140.561 317.32C140.561 317.827 139.841 318.08 138.401 318.08H137.201C136.667 318.08 136.214 318.027 135.841 317.92C135.467 317.787 135.227 317.587 135.121 317.32L132.001 309.48C131.547 308.413 131.001 307.667 130.361 307.24C129.721 306.787 128.694 306.56 127.281 306.56H125.041V316.92C125.041 317.693 124.334 318.08 122.921 318.08H121.921ZM125.041 302.04H129.361C130.054 302.04 130.681 301.867 131.241 301.52C131.827 301.147 132.281 300.667 132.601 300.08C132.947 299.467 133.121 298.8 133.121 298.08C133.121 296.907 132.747 296.013 132.001 295.4C131.281 294.787 130.307 294.48 129.081 294.48H125.041V302.04ZM145.895 318C144.908 318 144.415 317.507 144.415 316.52V291.48C144.415 290.493 144.908 290 145.895 290H159.895C160.615 290 160.975 290.573 160.975 291.72V292.76C160.975 293.907 160.615 294.48 159.895 294.48H149.655V301.44H158.775C159.495 301.44 159.855 302.013 159.855 303.16V304.2C159.855 305.347 159.495 305.92 158.775 305.92H149.655V313.52H159.935C160.655 313.52 161.015 314.093 161.015 315.24V316.28C161.015 317.427 160.655 318 159.935 318H145.895ZM177.131 318.28C173.504 318.28 170.704 317.453 168.731 315.8C166.757 314.12 165.771 311.773 165.771 308.76V291.08C165.771 290.307 166.477 289.92 167.891 289.92H168.891C170.304 289.92 171.011 290.307 171.011 291.08V308.56C171.011 309.573 171.264 310.48 171.771 311.28C172.304 312.08 173.037 312.707 173.971 313.16C174.904 313.587 175.957 313.8 177.131 313.8C178.331 313.8 179.384 313.587 180.291 313.16C181.224 312.707 181.957 312.08 182.491 311.28C183.024 310.48 183.291 309.573 183.291 308.56V291.08C183.291 290.307 183.997 289.92 185.411 289.92H186.371C187.784 289.92 188.491 290.307 188.491 291.08V308.76C188.491 311.773 187.491 314.12 185.491 315.8C183.517 317.453 180.731 318.28 177.131 318.28ZM196.647 318.08C195.234 318.08 194.527 317.693 194.527 316.92V291.48C194.527 290.493 195.007 290 195.967 290H203.407C206.741 290 209.207 290.613 210.807 291.84C212.434 293.067 213.247 294.907 213.247 297.36C213.247 298.96 212.821 300.307 211.967 301.4C211.114 302.493 209.994 303.32 208.607 303.88V304.04C209.221 304.253 209.794 304.747 210.327 305.52C210.861 306.267 211.327 307.147 211.727 308.16L215.127 316.64C215.234 316.96 215.287 317.187 215.287 317.32C215.287 317.827 214.567 318.08 213.127 318.08H211.927C211.394 318.08 210.941 318.027 210.567 317.92C210.194 317.787 209.954 317.587 209.847 317.32L206.727 309.48C206.274 308.413 205.727 307.667 205.087 307.24C204.447 306.787 203.421 306.56 202.007 306.56H199.767V316.92C199.767 317.693 199.061 318.08 197.647 318.08H196.647ZM199.767 302.04H204.087C204.781 302.04 205.407 301.867 205.967 301.52C206.554 301.147 207.007 300.667 207.327 300.08C207.674 299.467 207.847 298.8 207.847 298.08C207.847 296.907 207.474 296.013 206.727 295.4C206.007 294.787 205.034 294.48 203.807 294.48H199.767V302.04ZM240.071 318.08C238.737 318.08 238.071 317.693 238.071 316.92V311.96H227.031C226.844 311.96 226.644 311.773 226.431 311.4C226.217 311 226.044 310.547 225.911 310.04C225.777 309.533 225.711 309.133 225.711 308.84C225.711 308.627 225.737 308.48 225.791 308.4L238.111 290.6C238.324 290.307 238.604 290.12 238.951 290.04C239.297 289.96 239.711 289.92 240.191 289.92H241.111C242.444 289.92 243.111 290.307 243.111 291.08V307.92H245.031C245.724 307.92 246.071 308.493 246.071 309.64V310.24C246.071 311.387 245.724 311.96 245.031 311.96H243.111V316.92C243.111 317.693 242.444 318.08 241.111 318.08H240.071ZM230.991 307.92H238.071V300.44C238.071 299.88 238.097 299.267 238.151 298.6C238.231 297.933 238.324 297.387 238.431 296.96L238.271 296.92L230.991 307.92ZM257.517 318.28C255.65 318.28 254.024 317.747 252.637 316.68C251.25 315.587 250.157 313.973 249.357 311.84C248.557 309.707 248.157 307.093 248.157 304C248.157 300.88 248.557 298.267 249.357 296.16C250.157 294.027 251.25 292.427 252.637 291.36C254.024 290.267 255.65 289.72 257.517 289.72C259.357 289.72 260.97 290.267 262.357 291.36C263.77 292.427 264.877 294.027 265.677 296.16C266.477 298.267 266.877 300.88 266.877 304C266.877 307.093 266.477 309.707 265.677 311.84C264.877 313.973 263.77 315.587 262.357 316.68C260.97 317.747 259.357 318.28 257.517 318.28ZM257.517 314.24C258.317 314.24 259.037 313.88 259.677 313.16C260.344 312.44 260.85 311.32 261.197 309.8C261.57 308.28 261.757 306.347 261.757 304C261.757 301.627 261.57 299.693 261.197 298.2C260.85 296.68 260.344 295.56 259.677 294.84C259.037 294.12 258.317 293.76 257.517 293.76C256.69 293.76 255.957 294.12 255.317 294.84C254.677 295.56 254.17 296.68 253.797 298.2C253.45 299.693 253.277 301.627 253.277 304C253.277 306.347 253.45 308.28 253.797 309.8C254.17 311.32 254.677 312.44 255.317 313.16C255.957 313.88 256.69 314.24 257.517 314.24ZM282.883 318.08C281.55 318.08 280.883 317.693 280.883 316.92V311.96H269.843C269.656 311.96 269.456 311.773 269.243 311.4C269.03 311 268.856 310.547 268.723 310.04C268.59 309.533 268.523 309.133 268.523 308.84C268.523 308.627 268.55 308.48 268.603 308.4L280.923 290.6C281.136 290.307 281.416 290.12 281.763 290.04C282.11 289.96 282.523 289.92 283.003 289.92H283.923C285.256 289.92 285.923 290.307 285.923 291.08V307.92H287.843C288.536 307.92 288.883 308.493 288.883 309.64V310.24C288.883 311.387 288.536 311.96 287.843 311.96H285.923V316.92C285.923 317.693 285.256 318.08 283.923 318.08H282.883ZM273.803 307.92H280.883V300.44C280.883 299.88 280.91 299.267 280.963 298.6C281.043 297.933 281.136 297.387 281.243 296.96L281.083 296.92L273.803 307.92Z" fill="white"/>
<path d="M122.237 354.03C121.707 354.03 121.442 353.885 121.442 353.595V344.055C121.442 343.685 121.622 343.5 121.982 343.5H125.102C125.422 343.5 125.782 343.54 126.182 343.62C126.592 343.69 126.977 343.835 127.337 344.055C127.707 344.265 128.007 344.58 128.237 345C128.467 345.42 128.582 345.975 128.582 346.665C128.582 347.235 128.492 347.715 128.312 348.105C128.142 348.485 127.917 348.795 127.637 349.035C127.367 349.265 127.077 349.445 126.767 349.575C126.457 349.695 126.167 349.78 125.897 349.83C125.627 349.87 125.412 349.89 125.252 349.89H123.407V353.595C123.407 353.885 123.142 354.03 122.612 354.03H122.237ZM123.407 348.195H125.087C125.227 348.195 125.382 348.175 125.552 348.135C125.732 348.095 125.897 348.02 126.047 347.91C126.197 347.8 126.322 347.645 126.422 347.445C126.522 347.245 126.572 346.985 126.572 346.665C126.572 346.255 126.487 345.945 126.317 345.735C126.147 345.525 125.942 345.38 125.702 345.3C125.472 345.22 125.242 345.18 125.012 345.18H123.407V348.195ZM131.579 354.105C130.799 354.105 130.214 353.905 129.824 353.505C129.434 353.095 129.239 352.56 129.239 351.9C129.239 351.48 129.324 351.1 129.494 350.76C129.664 350.42 129.924 350.13 130.274 349.89C130.634 349.64 131.104 349.455 131.684 349.335C132.264 349.205 132.964 349.135 133.784 349.125V348.555C133.784 348.255 133.679 348.015 133.469 347.835C133.269 347.655 132.929 347.565 132.449 347.565C132.059 347.565 131.719 347.61 131.429 347.7C131.139 347.79 130.904 347.88 130.724 347.97C130.554 348.06 130.439 348.105 130.379 348.105C130.289 348.105 130.189 348.035 130.079 347.895C129.969 347.755 129.874 347.6 129.794 347.43C129.724 347.26 129.689 347.135 129.689 347.055C129.689 346.895 129.814 346.74 130.064 346.59C130.314 346.43 130.654 346.3 131.084 346.2C131.524 346.1 132.009 346.05 132.539 346.05C133.269 346.05 133.864 346.155 134.324 346.365C134.784 346.565 135.124 346.85 135.344 347.22C135.564 347.58 135.674 348.005 135.674 348.495V351.51C135.674 351.99 135.689 352.37 135.719 352.65C135.749 352.92 135.779 353.125 135.809 353.265C135.839 353.395 135.854 353.5 135.854 353.58C135.854 353.66 135.799 353.73 135.689 353.79C135.579 353.84 135.444 353.885 135.284 353.925C135.124 353.955 134.969 353.98 134.819 354C134.669 354.01 134.554 354.015 134.474 354.015C134.324 354.015 134.214 353.96 134.144 353.85C134.074 353.73 134.024 353.59 133.994 353.43C133.964 353.26 133.934 353.11 133.904 352.98C133.814 353.09 133.669 353.235 133.469 353.415C133.269 353.595 133.014 353.755 132.704 353.895C132.394 354.035 132.019 354.105 131.579 354.105ZM132.089 352.59C132.469 352.59 132.799 352.495 133.079 352.305C133.369 352.105 133.604 351.87 133.784 351.6V350.46C133.414 350.46 133.069 350.48 132.749 350.52C132.439 350.56 132.159 350.625 131.909 350.715C131.669 350.805 131.484 350.935 131.354 351.105C131.224 351.265 131.159 351.47 131.159 351.72C131.159 351.99 131.234 352.205 131.384 352.365C131.544 352.515 131.779 352.59 132.089 352.59ZM140.637 357.18C139.907 357.18 139.287 357.105 138.777 356.955C138.277 356.815 137.897 356.59 137.637 356.28C137.377 355.98 137.247 355.6 137.247 355.14C137.247 354.74 137.367 354.385 137.607 354.075C137.847 353.765 138.177 353.525 138.597 353.355L138.612 353.31C138.412 353.19 138.257 353.03 138.147 352.83C138.037 352.63 137.982 352.4 137.982 352.14C137.982 351.85 138.057 351.59 138.207 351.36C138.367 351.13 138.582 350.93 138.852 350.76C138.462 350.56 138.157 350.285 137.937 349.935C137.727 349.575 137.622 349.145 137.622 348.645C137.622 348.055 137.752 347.57 138.012 347.19C138.282 346.81 138.652 346.525 139.122 346.335C139.602 346.145 140.142 346.05 140.742 346.05C140.932 346.05 141.117 346.06 141.297 346.08C141.477 346.09 141.647 346.115 141.807 346.155H144.327C144.597 346.155 144.732 346.37 144.732 346.8V347.025C144.732 347.435 144.617 347.64 144.387 347.64C144.307 347.64 144.167 347.63 143.967 347.61C143.777 347.58 143.627 347.55 143.517 347.52L143.502 347.565C143.622 347.715 143.712 347.885 143.772 348.075C143.842 348.255 143.877 348.445 143.877 348.645C143.877 349.195 143.747 349.655 143.487 350.025C143.237 350.395 142.882 350.675 142.422 350.865C141.972 351.055 141.447 351.15 140.847 351.15C140.397 351.15 140.092 351.205 139.932 351.315C139.772 351.415 139.692 351.57 139.692 351.78C139.692 352 139.807 352.16 140.037 352.26C140.267 352.36 140.557 352.43 140.907 352.47C141.267 352.51 141.647 352.56 142.047 352.62C142.457 352.69 142.842 352.8 143.202 352.95C143.562 353.09 143.852 353.3 144.072 353.58C144.292 353.86 144.402 354.245 144.402 354.735C144.402 355.235 144.252 355.665 143.952 356.025C143.652 356.395 143.217 356.68 142.647 356.88C142.087 357.08 141.417 357.18 140.637 357.18ZM140.802 355.68C141.402 355.68 141.847 355.6 142.137 355.44C142.427 355.29 142.572 355.075 142.572 354.795C142.572 354.615 142.502 354.475 142.362 354.375C142.232 354.275 142.047 354.195 141.807 354.135C141.567 354.085 141.282 354.04 140.952 354C140.632 353.96 140.282 353.915 139.902 353.865C139.652 353.965 139.447 354.095 139.287 354.255C139.137 354.425 139.062 354.615 139.062 354.825C139.062 355.105 139.197 355.315 139.467 355.455C139.747 355.605 140.192 355.68 140.802 355.68ZM140.742 349.74C141.112 349.74 141.427 349.655 141.687 349.485C141.947 349.315 142.077 349.02 142.077 348.6C142.077 348.19 141.947 347.9 141.687 347.73C141.427 347.55 141.112 347.46 140.742 347.46C140.372 347.46 140.057 347.55 139.797 347.73C139.537 347.9 139.407 348.19 139.407 348.6C139.407 349.02 139.537 349.315 139.797 349.485C140.057 349.655 140.372 349.74 140.742 349.74ZM149.178 354.105C147.858 354.105 146.888 353.755 146.268 353.055C145.648 352.355 145.338 351.38 145.338 350.13C145.338 349.17 145.483 348.39 145.773 347.79C146.073 347.19 146.493 346.75 147.033 346.47C147.573 346.19 148.208 346.05 148.938 346.05C149.698 346.05 150.308 346.22 150.768 346.56C151.238 346.89 151.583 347.35 151.803 347.94C152.023 348.52 152.133 349.185 152.133 349.935C152.133 350.005 152.088 350.105 151.998 350.235C151.918 350.365 151.823 350.48 151.713 350.58C151.603 350.68 151.518 350.73 151.458 350.73H147.318C147.368 351.4 147.558 351.88 147.888 352.17C148.218 352.45 148.668 352.59 149.238 352.59C149.598 352.59 149.908 352.545 150.168 352.455C150.438 352.365 150.658 352.28 150.828 352.2C151.008 352.11 151.128 352.065 151.188 352.065C151.278 352.065 151.378 352.135 151.488 352.275C151.598 352.405 151.688 352.55 151.758 352.71C151.838 352.86 151.878 352.98 151.878 353.07C151.878 353.23 151.788 353.375 151.608 353.505C151.438 353.625 151.213 353.735 150.933 353.835C150.653 353.925 150.358 353.99 150.048 354.03C149.738 354.08 149.448 354.105 149.178 354.105ZM147.318 349.38H150.258C150.258 348.82 150.148 348.38 149.928 348.06C149.718 347.73 149.383 347.565 148.923 347.565C148.493 347.565 148.133 347.705 147.843 347.985C147.563 348.265 147.388 348.73 147.318 349.38ZM158.182 354.03C157.652 354.03 157.387 353.885 157.387 353.595V346.56C157.387 346.27 157.652 346.125 158.182 346.125H158.482C159.012 346.125 159.277 346.27 159.277 346.56V353.595C159.277 353.885 159.012 354.03 158.482 354.03H158.182ZM158.332 345.285C157.992 345.285 157.747 345.25 157.597 345.18C157.447 345.1 157.372 344.99 157.372 344.85V343.77C157.372 343.63 157.447 343.525 157.597 343.455C157.747 343.385 157.992 343.35 158.332 343.35C158.672 343.35 158.917 343.385 159.067 343.455C159.217 343.525 159.292 343.63 159.292 343.77V344.85C159.292 344.99 159.217 345.1 159.067 345.18C158.917 345.25 158.672 345.285 158.332 345.285ZM162.152 354.03C161.622 354.03 161.357 353.885 161.357 353.595V348.675C161.357 348.205 161.342 347.835 161.312 347.565C161.282 347.295 161.252 347.09 161.222 346.95C161.192 346.81 161.177 346.705 161.177 346.635C161.177 346.555 161.232 346.49 161.342 346.44C161.452 346.38 161.587 346.335 161.747 346.305C161.907 346.265 162.062 346.24 162.212 346.23C162.372 346.21 162.487 346.2 162.557 346.2C162.707 346.2 162.817 346.255 162.887 346.365C162.957 346.475 163.007 346.605 163.037 346.755C163.077 346.905 163.112 347.045 163.142 347.175C163.392 346.865 163.712 346.6 164.102 346.38C164.502 346.16 164.937 346.05 165.407 346.05C166.167 346.05 166.737 346.255 167.117 346.665C167.497 347.065 167.687 347.67 167.687 348.48V353.595C167.687 353.885 167.422 354.03 166.892 354.03H166.607C166.077 354.03 165.812 353.885 165.812 353.595V348.735C165.812 348.385 165.722 348.115 165.542 347.925C165.362 347.725 165.077 347.625 164.687 347.625C164.367 347.625 164.082 347.725 163.832 347.925C163.592 348.125 163.397 348.335 163.247 348.555V353.595C163.247 353.885 162.982 354.03 162.452 354.03H162.152ZM172.062 354.105C171.772 354.105 171.497 354.065 171.237 353.985C170.987 353.905 170.767 353.775 170.577 353.595C170.387 353.415 170.237 353.18 170.127 352.89C170.017 352.59 169.962 352.23 169.962 351.81V347.67H169.557C169.287 347.67 169.152 347.455 169.152 347.025V346.8C169.152 346.37 169.287 346.155 169.557 346.155H169.962L170.157 344.685C170.197 344.395 170.427 344.25 170.847 344.25H171.207C171.637 344.25 171.852 344.395 171.852 344.685V346.155H172.767C173.037 346.155 173.172 346.37 173.172 346.8V347.025C173.172 347.455 173.037 347.67 172.767 347.67H171.852V351.78C171.852 352.08 171.907 352.29 172.017 352.41C172.127 352.53 172.282 352.59 172.482 352.59C172.612 352.59 172.712 352.58 172.782 352.56C172.862 352.54 172.927 352.53 172.977 352.53C173.067 352.53 173.142 352.6 173.202 352.74C173.262 352.88 173.307 353.03 173.337 353.19C173.377 353.34 173.397 353.435 173.397 353.475C173.397 353.665 173.317 353.81 173.157 353.91C172.997 354 172.812 354.055 172.602 354.075C172.402 354.095 172.222 354.105 172.062 354.105ZM175.659 354.03C175.129 354.03 174.864 353.885 174.864 353.595V348.675C174.864 348.205 174.849 347.835 174.819 347.565C174.789 347.295 174.759 347.09 174.729 346.95C174.699 346.81 174.684 346.705 174.684 346.635C174.684 346.555 174.739 346.49 174.849 346.44C174.959 346.38 175.094 346.335 175.254 346.305C175.414 346.265 175.569 346.24 175.719 346.23C175.869 346.21 175.984 346.2 176.064 346.2C176.204 346.2 176.309 346.255 176.379 346.365C176.459 346.475 176.514 346.605 176.544 346.755C176.574 346.905 176.604 347.045 176.634 347.175C176.824 346.865 177.049 346.6 177.309 346.38C177.579 346.16 177.909 346.05 178.299 346.05C178.649 346.05 178.879 346.115 178.989 346.245C179.109 346.375 179.169 346.555 179.169 346.785C179.169 346.875 179.149 347.01 179.109 347.19C179.079 347.36 179.034 347.52 178.974 347.67C178.914 347.81 178.839 347.88 178.749 347.88C178.649 347.88 178.549 347.86 178.449 347.82C178.349 347.77 178.204 347.745 178.014 347.745C177.794 347.745 177.594 347.8 177.414 347.91C177.234 348.02 177.084 348.14 176.964 348.27C176.854 348.39 176.784 348.485 176.754 348.555V353.595C176.754 353.885 176.484 354.03 175.944 354.03H175.659ZM183.274 354.105C182.104 354.105 181.209 353.76 180.589 353.07C179.979 352.38 179.674 351.385 179.674 350.085C179.674 348.775 179.979 347.775 180.589 347.085C181.209 346.395 182.104 346.05 183.274 346.05C184.434 346.05 185.314 346.395 185.914 347.085C186.524 347.775 186.829 348.775 186.829 350.085C186.829 351.385 186.529 352.38 185.929 353.07C185.329 353.76 184.444 354.105 183.274 354.105ZM183.259 352.59C183.819 352.59 184.229 352.38 184.489 351.96C184.759 351.54 184.894 350.91 184.894 350.07C184.894 349.24 184.759 348.615 184.489 348.195C184.229 347.775 183.819 347.565 183.259 347.565C182.689 347.565 182.269 347.775 181.999 348.195C181.739 348.605 181.609 349.235 181.609 350.085C181.609 350.915 181.739 351.54 181.999 351.96C182.269 352.38 182.689 352.59 183.259 352.59ZM190.779 354.105C190.029 354.105 189.459 353.905 189.069 353.505C188.689 353.095 188.499 352.485 188.499 351.675V346.56C188.499 346.27 188.764 346.125 189.294 346.125H189.579C190.109 346.125 190.374 346.27 190.374 346.56V351.42C190.374 351.77 190.464 352.045 190.644 352.245C190.824 352.435 191.109 352.53 191.499 352.53C191.819 352.53 192.099 352.43 192.339 352.23C192.589 352.03 192.789 351.82 192.939 351.6V346.56C192.939 346.27 193.204 346.125 193.734 346.125H194.034C194.564 346.125 194.829 346.27 194.829 346.56V351.51C194.829 351.99 194.844 352.37 194.874 352.65C194.904 352.92 194.934 353.125 194.964 353.265C194.994 353.395 195.009 353.5 195.009 353.58C195.009 353.66 194.954 353.73 194.844 353.79C194.734 353.84 194.599 353.885 194.439 353.925C194.279 353.955 194.119 353.98 193.959 354C193.809 354.01 193.699 354.015 193.629 354.015C193.479 354.015 193.369 353.96 193.299 353.85C193.229 353.73 193.174 353.59 193.134 353.43C193.104 353.26 193.074 353.11 193.044 352.98C192.794 353.28 192.469 353.545 192.069 353.775C191.679 353.995 191.249 354.105 190.779 354.105ZM199.264 354.03C199.074 354.03 198.909 354.01 198.769 353.97C198.639 353.93 198.554 353.855 198.514 353.745L196.114 346.68C196.104 346.64 196.089 346.6 196.069 346.56C196.059 346.51 196.054 346.465 196.054 346.425C196.054 346.225 196.329 346.125 196.879 346.125H197.239C197.429 346.125 197.589 346.145 197.719 346.185C197.859 346.225 197.949 346.3 197.989 346.41L199.009 349.62C199.129 350 199.234 350.39 199.324 350.79C199.424 351.18 199.499 351.525 199.549 351.825H199.609C199.649 351.525 199.714 351.18 199.804 350.79C199.894 350.4 200.014 349.98 200.164 349.53L201.154 346.41C201.194 346.3 201.279 346.225 201.409 346.185C201.549 346.145 201.719 346.125 201.919 346.125H202.174C202.704 346.125 202.969 346.225 202.969 346.425C202.969 346.495 202.954 346.58 202.924 346.68L200.524 353.745C200.484 353.855 200.394 353.93 200.254 353.97C200.124 354.01 199.959 354.03 199.759 354.03H199.264ZM206.007 354.105C205.227 354.105 204.642 353.905 204.252 353.505C203.862 353.095 203.667 352.56 203.667 351.9C203.667 351.48 203.752 351.1 203.922 350.76C204.092 350.42 204.352 350.13 204.702 349.89C205.062 349.64 205.532 349.455 206.112 349.335C206.692 349.205 207.392 349.135 208.212 349.125V348.555C208.212 348.255 208.107 348.015 207.897 347.835C207.697 347.655 207.357 347.565 206.877 347.565C206.487 347.565 206.147 347.61 205.857 347.7C205.567 347.79 205.332 347.88 205.152 347.97C204.982 348.06 204.867 348.105 204.807 348.105C204.717 348.105 204.617 348.035 204.507 347.895C204.397 347.755 204.302 347.6 204.222 347.43C204.152 347.26 204.117 347.135 204.117 347.055C204.117 346.895 204.242 346.74 204.492 346.59C204.742 346.43 205.082 346.3 205.512 346.2C205.952 346.1 206.437 346.05 206.967 346.05C207.697 346.05 208.292 346.155 208.752 346.365C209.212 346.565 209.552 346.85 209.772 347.22C209.992 347.58 210.102 348.005 210.102 348.495V351.51C210.102 351.99 210.117 352.37 210.147 352.65C210.177 352.92 210.207 353.125 210.237 353.265C210.267 353.395 210.282 353.5 210.282 353.58C210.282 353.66 210.227 353.73 210.117 353.79C210.007 353.84 209.872 353.885 209.712 353.925C209.552 353.955 209.397 353.98 209.247 354C209.097 354.01 208.982 354.015 208.902 354.015C208.752 354.015 208.642 353.96 208.572 353.85C208.502 353.73 208.452 353.59 208.422 353.43C208.392 353.26 208.362 353.11 208.332 352.98C208.242 353.09 208.097 353.235 207.897 353.415C207.697 353.595 207.442 353.755 207.132 353.895C206.822 354.035 206.447 354.105 206.007 354.105ZM206.517 352.59C206.897 352.59 207.227 352.495 207.507 352.305C207.797 352.105 208.032 351.87 208.212 351.6V350.46C207.842 350.46 207.497 350.48 207.177 350.52C206.867 350.56 206.587 350.625 206.337 350.715C206.097 350.805 205.912 350.935 205.782 351.105C205.652 351.265 205.587 351.47 205.587 351.72C205.587 351.99 205.662 352.205 205.812 352.365C205.972 352.515 206.207 352.59 206.517 352.59ZM216.176 354.105C215.726 354.105 215.316 354.005 214.946 353.805C214.586 353.595 214.286 353.32 214.046 352.98C213.996 353.26 213.921 353.505 213.821 353.715C213.761 353.845 213.681 353.93 213.581 353.97C213.481 354.01 213.336 354.03 213.146 354.03H213.011C212.521 354.03 212.276 353.885 212.276 353.595V343.125C212.276 342.845 212.541 342.705 213.071 342.705H213.356C213.886 342.705 214.151 342.845 214.151 343.125V346.62C214.361 346.46 214.606 346.325 214.886 346.215C215.176 346.105 215.516 346.05 215.906 346.05C216.866 346.05 217.626 346.41 218.186 347.13C218.746 347.84 219.026 348.82 219.026 350.07C219.026 350.91 218.906 351.635 218.666 352.245C218.426 352.845 218.091 353.305 217.661 353.625C217.241 353.945 216.746 354.105 216.176 354.105ZM215.666 352.545C216.136 352.545 216.491 352.33 216.731 351.9C216.971 351.47 217.091 350.85 217.091 350.04C217.091 349.24 216.956 348.63 216.686 348.21C216.426 347.79 216.026 347.58 215.486 347.58C215.226 347.58 214.981 347.62 214.751 347.7C214.531 347.77 214.331 347.87 214.151 348V351.6C214.351 351.87 214.576 352.095 214.826 352.275C215.086 352.455 215.366 352.545 215.666 352.545ZM222.871 354.105C222.571 354.105 222.291 354.065 222.031 353.985C221.781 353.905 221.561 353.775 221.371 353.595C221.181 353.415 221.031 353.18 220.921 352.89C220.821 352.59 220.771 352.23 220.771 351.81V343.125C220.771 342.845 221.036 342.705 221.566 342.705H221.851C222.381 342.705 222.646 342.845 222.646 343.125V351.78C222.646 352.08 222.701 352.29 222.811 352.41C222.931 352.53 223.091 352.59 223.291 352.59C223.411 352.59 223.506 352.58 223.576 352.56C223.656 352.54 223.721 352.53 223.771 352.53C223.861 352.53 223.936 352.6 223.996 352.74C224.056 352.88 224.101 353.03 224.131 353.19C224.171 353.34 224.191 353.435 224.191 353.475C224.191 353.665 224.111 353.81 223.951 353.91C223.791 354 223.606 354.055 223.396 354.075C223.196 354.095 223.021 354.105 222.871 354.105ZM228.206 354.105C226.886 354.105 225.916 353.755 225.296 353.055C224.676 352.355 224.366 351.38 224.366 350.13C224.366 349.17 224.511 348.39 224.801 347.79C225.101 347.19 225.521 346.75 226.061 346.47C226.601 346.19 227.236 346.05 227.966 346.05C228.726 346.05 229.336 346.22 229.796 346.56C230.266 346.89 230.611 347.35 230.831 347.94C231.051 348.52 231.161 349.185 231.161 349.935C231.161 350.005 231.116 350.105 231.026 350.235C230.946 350.365 230.851 350.48 230.741 350.58C230.631 350.68 230.546 350.73 230.486 350.73H226.346C226.396 351.4 226.586 351.88 226.916 352.17C227.246 352.45 227.696 352.59 228.266 352.59C228.626 352.59 228.936 352.545 229.196 352.455C229.466 352.365 229.686 352.28 229.856 352.2C230.036 352.11 230.156 352.065 230.216 352.065C230.306 352.065 230.406 352.135 230.516 352.275C230.626 352.405 230.716 352.55 230.786 352.71C230.866 352.86 230.906 352.98 230.906 353.07C230.906 353.23 230.816 353.375 230.636 353.505C230.466 353.625 230.241 353.735 229.961 353.835C229.681 353.925 229.386 353.99 229.076 354.03C228.766 354.08 228.476 354.105 228.206 354.105ZM226.346 349.38H229.286C229.286 348.82 229.176 348.38 228.956 348.06C228.746 347.73 228.411 347.565 227.951 347.565C227.521 347.565 227.161 347.705 226.871 347.985C226.591 348.265 226.416 348.73 226.346 349.38ZM233.052 354.03C232.522 354.03 232.257 353.885 232.257 353.595V352.35C232.257 352.07 232.522 351.93 233.052 351.93H233.457C233.987 351.93 234.252 352.07 234.252 352.35V353.595C234.252 353.885 233.987 354.03 233.457 354.03H233.052ZM236.026 354.03C235.496 354.03 235.231 353.885 235.231 353.595V352.35C235.231 352.07 235.496 351.93 236.026 351.93H236.431C236.961 351.93 237.226 352.07 237.226 352.35V353.595C237.226 353.885 236.961 354.03 236.431 354.03H236.026ZM238.999 354.03C238.469 354.03 238.204 353.885 238.204 353.595V352.35C238.204 352.07 238.469 351.93 238.999 351.93H239.404C239.934 351.93 240.199 352.07 240.199 352.35V353.595C240.199 353.885 239.934 354.03 239.404 354.03H238.999Z" fill="white"/>
<path d="M523.865 1011.15C421.41 1150.73 222.681 1178.96 79.9901 1074.22C-62.7008 969.48 -95.319 771.422 7.13525 631.848C109.59 492.274 308.319 464.036 451.01 568.778C593.701 673.52 626.319 871.578 523.865 1011.15Z" fill="url(#paint0_linear_7_34)"/>
<path d="M180.136 419.588C181.23 419.521 182.323 419.526 183.386 419.22C185.002 418.754 185.739 417.774 185.95 416.224C186.209 414.316 185.839 412.487 185.107 410.722C184.678 409.687 184.116 408.731 183.353 407.91C182.406 406.893 181.305 406.179 179.835 406.293C178.909 406.366 178.133 406.793 177.454 407.394C176.069 408.621 175.265 410.205 174.728 411.942C174.357 413.142 174.186 414.372 174.258 415.628C174.317 416.662 174.552 417.64 175.34 418.39C175.96 418.982 176.739 419.257 177.563 419.366C178.416 419.479 179.278 419.517 180.136 419.588Z" fill="white"/>
<path d="M198.788 395.853C198.788 395.2 198.432 394.702 197.835 394.457C195.117 393.342 192.596 391.9 190.392 389.935C189.582 389.213 188.828 388.441 188.179 387.569C187.722 386.956 186.819 386.819 186.199 387.252C185.512 387.731 185.32 388.598 185.776 389.275C186.389 390.184 187.144 390.974 187.942 391.72C189.515 393.191 191.235 394.466 193.143 395.467C194.341 396.095 195.57 396.67 196.809 397.215C197.75 397.63 198.788 396.886 198.788 395.853Z" fill="white"/>
<path d="M161 396.006C161.006 397.016 162.04 397.726 162.982 397.357C165.772 396.263 168.348 394.793 170.67 392.895C171.888 391.899 173.012 390.801 173.945 389.523C174.319 389.01 174.357 388.357 174.041 387.849C173.706 387.312 173.12 387.049 172.487 387.169C172.117 387.239 171.812 387.428 171.585 387.736C170.656 388.996 169.51 390.038 168.285 390.998C166.579 392.335 164.705 393.387 162.731 394.266C162.4 394.414 162.057 394.538 161.737 394.705C161.219 394.976 161.006 395.437 161 396.006Z" fill="white"/>
<path d="M190.455 397.447C187.811 397.508 185.541 397.94 183.402 398.948C182.669 399.294 182.38 400.205 182.737 400.907C183.115 401.65 183.951 401.917 184.721 401.589C185.3 401.343 185.899 401.132 186.503 400.954C187.457 400.673 188.435 400.531 189.432 400.457C191.024 400.339 192.554 400.576 194.048 401.101C194.451 401.243 194.841 401.425 195.234 401.596C196.003 401.93 196.809 401.64 197.176 400.894C197.525 400.186 197.253 399.319 196.533 398.948C195.247 398.286 193.881 397.852 192.452 397.644C191.695 397.533 190.929 397.492 190.455 397.447Z" fill="white"/>
<path d="M170.46 397.579C167.704 397.636 165.495 398.081 163.392 399.01C162.622 399.351 162.258 400.221 162.572 400.942C162.917 401.734 163.756 402.096 164.55 401.735C165.613 401.251 166.723 400.92 167.865 400.733C170.348 400.325 172.755 400.584 175.039 401.699C175.946 402.142 176.941 401.673 177.167 400.694C177.312 400.063 177.012 399.396 176.424 399.094C175.32 398.528 174.162 398.096 172.937 397.892C171.966 397.731 170.984 397.643 170.46 397.579Z" fill="white"/>
<path d="M369 18C369 130.666 275.651 222 160.5 222C45.3486 222 -48 130.666 -48 18C-48 -94.6661 45.3486 -186 160.5 -186C275.651 -186 369 -94.6661 369 18Z" fill="url(#paint1_linear_7_34)"/>
</g>
<defs>
<linearGradient id="paint0_linear_7_34" x1="451.01" y1="568.778" x2="79.9901" y2="1074.22" gradientUnits="userSpaceOnUse">
<stop stop-color="#FFCF0D"/>
<stop offset="1" stop-color="#FED83C" stop-opacity="0"/>
</linearGradient>
<linearGradient id="paint1_linear_7_34" x1="160.5" y1="-186" x2="160.5" y2="222" gradientUnits="userSpaceOnUse">
<stop stop-color="#FFCF0D"/>
<stop offset="1" stop-color="#FED83C" stop-opacity="0"/>
</linearGradient>
<clipPath id="clip0_7_34">
<rect width="360" height="800" fill="white"/>
</clipPath>
</defs>
</svg>
