<svg width="38" height="33" viewBox="0 0 38 33" fill="none" xmlns="http://www.w3.org/2000/svg">
<path d="M19.1363 32.5876C20.2303 32.5214 21.3229 32.526 22.3858 32.2199C24.0023 31.7544 24.739 30.7738 24.9498 29.2242C25.2094 27.3155 24.8388 25.4874 24.107 23.7219C23.678 22.6869 23.1163 21.7314 22.3525 20.9103C21.4064 19.8931 20.3046 19.1786 18.835 19.2935C17.9088 19.3659 17.1335 19.7926 16.4544 20.3941C15.0693 21.6211 14.2652 23.2045 13.7278 24.942C13.3565 26.1422 13.1861 27.3723 13.2581 28.628C13.3175 29.6622 13.5523 30.6404 14.3395 31.3904C14.9602 31.9818 15.7389 32.2568 16.5634 32.3662C17.4158 32.4794 18.2782 32.5169 19.1363 32.5876Z" fill="white"/>
<path d="M37.7878 8.85301C37.7877 8.20015 37.4321 7.70184 36.8355 7.45717C34.1168 6.34216 31.5962 4.90034 29.3919 2.93529C28.5815 2.21282 27.8284 1.44146 27.1789 0.568854C26.7225 -0.0444326 25.8189 -0.180508 25.1985 0.252098C24.5124 0.730536 24.32 1.59774 24.7759 2.27455C25.3888 3.1844 26.1437 3.97375 26.9421 4.72045C28.515 6.19139 30.2355 7.46628 32.1427 8.46674C33.3412 9.09541 34.5705 9.66976 35.8093 10.2154C36.7501 10.6299 37.788 9.88596 37.7878 8.85301Z" fill="white"/>
<path d="M0 9.00577C0.00626888 10.0157 1.04028 10.7262 1.9816 10.3572C4.77228 9.26335 7.34837 7.7931 9.66973 5.89495C10.8882 4.89861 12.0123 3.80132 12.945 2.52278C13.3187 2.01044 13.3569 1.35664 13.0406 0.849269C12.7056 0.311955 12.1201 0.0488667 11.4872 0.168965C11.117 0.239198 10.8124 0.428325 10.5853 0.736265C9.65602 1.99641 8.50975 3.03787 7.28457 3.9984C5.57925 5.33534 3.70537 6.38699 1.73061 7.26644C1.39962 7.41385 1.05672 7.53781 0.736512 7.70544C0.218846 7.97644 0.00553136 8.43703 0 9.00577Z" fill="white"/>
<path d="M29.4553 10.4467C26.8107 10.5076 24.5409 10.9397 22.4025 11.948C21.6689 12.2939 21.3802 13.205 21.7375 13.9073C22.1153 14.6503 22.9509 14.917 23.721 14.5893C24.3005 14.3427 24.8987 14.1315 25.5031 13.9538C26.4573 13.6731 27.4352 13.5312 28.4317 13.4572C30.0238 13.3391 31.5538 13.5757 33.0476 14.1007C33.4513 14.2426 33.841 14.4251 34.2342 14.5959C35.0028 14.9296 35.8089 14.6404 36.1762 13.8944C36.5249 13.1861 36.2528 12.3192 35.5332 11.9485C34.2474 11.2859 32.8813 10.8525 31.4518 10.6438C30.6954 10.5335 29.929 10.4918 29.4553 10.4467Z" fill="white"/>
<path d="M9.45989 10.5786C6.70371 10.6355 4.49532 11.0805 2.39202 12.0104C1.62212 12.3507 1.25818 13.2213 1.57219 13.942C1.91732 14.734 2.75589 15.0963 3.54969 14.735C4.61313 14.2509 5.72276 13.9202 6.86545 13.7325C9.34785 13.3248 11.7548 13.5843 14.0389 14.6991C14.9459 15.1418 15.9408 14.6728 16.1666 13.694C16.3123 13.0628 16.0121 12.3956 15.4241 12.0941C14.3195 11.5277 13.1619 11.0956 11.9368 10.8919C10.9665 10.7306 9.98389 10.6431 9.45989 10.5786Z" fill="white"/>
</svg>
