<svg width="89" height="77" viewBox="0 0 89 77" fill="none" xmlns="http://www.w3.org/2000/svg">
<path d="M45.0709 77C47.6476 76.8437 50.221 76.8546 52.7244 76.1313C56.5315 75.0313 58.2668 72.7144 58.7632 69.0528C59.3746 64.5428 58.5018 60.2234 56.7782 56.0516C55.7677 53.606 54.4449 51.3484 52.6459 49.4081C50.4176 47.0048 47.8226 45.3164 44.3612 45.5879C42.1799 45.759 40.3537 46.7671 38.7542 48.1886C35.492 51.0877 33.5983 54.8292 32.3324 58.9346C31.458 61.7705 31.0566 64.677 31.2263 67.644C31.3661 70.0879 31.9191 72.3991 33.7733 74.1714C35.2352 75.5688 37.0692 76.2185 39.0111 76.4771C41.0187 76.7444 43.05 76.8331 45.0709 77Z" fill="#022D3A" fill-opacity="0.933333"/>
<path d="M89 20.9185C88.9997 19.3758 88.1622 18.1984 86.7571 17.6203C80.3538 14.9857 74.4172 11.5788 69.2256 6.9357C67.3168 5.2286 65.543 3.40598 64.0133 1.34412C62.9383 -0.104988 60.8102 -0.426517 59.349 0.595674C57.7331 1.72616 57.2798 3.77524 58.3536 5.37445C59.7972 7.52431 61.5751 9.38944 63.4556 11.1538C67.1601 14.6294 71.2124 17.6418 75.7044 20.0058C78.527 21.4912 81.4224 22.8483 84.3401 24.1377C86.5561 25.117 89.0005 23.3592 89 20.9185Z" fill="#022D3A" fill-opacity="0.933333"/>
<path d="M0 21.2794C0.0147648 23.6657 2.45012 25.3444 4.66718 24.4726C11.24 21.888 17.3073 18.4141 22.7747 13.929C25.6445 11.5748 28.292 8.982 30.4888 5.961C31.3691 4.75039 31.4589 3.20557 30.7139 2.00671C29.9249 0.737107 28.546 0.115465 27.0552 0.39924C26.1834 0.565192 25.4661 1.01207 24.9312 1.73969C22.7424 4.71725 20.0427 7.17809 17.157 9.44769C13.1406 12.6067 8.7271 15.0916 4.07604 17.1696C3.29646 17.5179 2.48885 17.8108 1.73468 18.2069C0.515439 18.8473 0.0130278 19.9356 0 21.2794Z" fill="#022D3A" fill-opacity="0.933333"/>
<path d="M69.3749 24.684C63.1461 24.828 57.8001 25.8491 52.7636 28.2316C51.0358 29.0489 50.3559 31.2016 51.1973 32.8611C52.0874 34.6166 54.0554 35.2469 55.869 34.4725C57.2339 33.8898 58.6429 33.3908 60.0664 32.9708C62.3138 32.3078 64.6171 31.9724 66.9639 31.7976C70.7139 31.5185 74.3173 32.0776 77.8357 33.3181C78.7865 33.6533 79.7043 34.0847 80.6303 34.488C82.4406 35.2766 84.3391 34.5933 85.2042 32.8306C86.0256 31.1569 85.3847 29.1087 83.6899 28.2326C80.6615 26.6671 77.444 25.6429 74.077 25.15C72.2956 24.8892 70.4906 24.7908 69.3749 24.684Z" fill="#022D3A" fill-opacity="0.933333"/>
<path d="M22.2805 24.9958C15.789 25.1303 10.5876 26.1818 5.63382 28.3789C3.82051 29.1831 2.96334 31.2402 3.70292 32.943C4.51579 34.8145 6.49084 35.6705 8.36042 34.8168C10.8651 33.673 13.4786 32.8916 16.1699 32.4481C22.0166 31.4848 27.6855 32.0979 33.0651 34.732C35.2014 35.7781 37.5446 34.6698 38.0766 32.3571C38.4197 30.8657 37.7126 29.2892 36.3276 28.5767C33.7262 27.2384 30.9998 26.2174 28.1142 25.7362C25.8289 25.355 23.5146 25.1483 22.2805 24.9958Z" fill="#022D3A" fill-opacity="0.933333"/>
</svg>
