<?xml version="1.0" standalone="no"?>
<!DOCTYPE svg PUBLIC "-//W3C//DTD SVG 20010904//EN"
 "http://www.w3.org/TR/2001/REC-SVG-20010904/DTD/svg10.dtd">
<svg version="1.0" xmlns="http://www.w3.org/2000/svg"
 width="4905.000000pt" height="4905.000000pt" viewBox="0 0 4905.000000 4905.000000"
 preserveAspectRatio="xMidYMid meet">
<metadata>
Created by potrace 1.14, written by Peter Selinger 2001-2017
</metadata>
<g transform="translate(0.000000,4905.000000) scale(0.100000,-0.100000)"
fill="#000000" stroke="none">
<path d="M23747 41404 c-1 -1 -63 -4 -137 -8 -74 -3 -148 -8 -165 -10 -16 -2
-61 -7 -100 -11 -75 -7 -87 -8 -210 -25 -109 -15 -297 -48 -372 -66 -35 -7
-93 -21 -130 -29 -270 -62 -714 -212 -952 -321 -157 -73 -367 -178 -456 -229
-55 -32 -120 -69 -145 -83 -25 -14 -56 -33 -70 -42 -14 -9 -88 -59 -165 -110
-203 -135 -429 -310 -620 -480 -58 -52 -373 -367 -425 -426 -25 -27 -67 -77
-95 -110 -27 -32 -52 -61 -55 -64 -4 -3 -50 -61 -104 -130 -201 -259 -412
-593 -564 -894 -42 -83 -77 -153 -77 -156 -1 -3 -14 -32 -29 -65 -51 -110
-134 -319 -181 -454 -40 -117 -125 -397 -140 -463 -2 -13 -18 -81 -34 -153
-16 -71 -32 -146 -35 -166 -3 -20 -7 -42 -10 -50 -3 -8 -8 -34 -11 -59 -3 -25
-8 -58 -10 -73 -2 -15 -7 -47 -10 -70 -3 -23 -8 -53 -10 -67 -6 -41 -15 -121
-20 -175 -2 -27 -7 -86 -12 -130 -20 -206 -3 -1076 32 -1600 8 -116 22 -286
30 -355 2 -19 7 -69 11 -110 3 -41 7 -82 9 -90 2 -8 6 -44 9 -80 4 -36 9 -76
11 -90 3 -14 7 -45 10 -70 3 -25 7 -62 10 -82 3 -21 7 -57 10 -80 3 -24 8 -54
10 -68 3 -14 7 -41 9 -60 3 -19 7 -48 10 -65 3 -16 7 -50 10 -75 3 -25 8 -56
10 -70 2 -14 8 -47 12 -75 4 -27 8 -54 10 -60 1 -5 5 -28 8 -50 10 -65 16 -98
21 -130 3 -16 8 -46 10 -65 3 -19 10 -57 16 -85 6 -27 13 -63 16 -80 2 -16 11
-57 20 -90 8 -33 16 -67 18 -75 2 -8 10 -45 19 -81 8 -37 17 -78 20 -90 4 -21
42 -191 51 -229 2 -8 10 -44 18 -80 8 -36 34 -148 57 -250 23 -102 46 -201 50
-220 24 -112 111 -492 115 -502 2 -7 7 -25 10 -40 3 -16 8 -40 11 -55 7 -35
93 -414 145 -643 23 -96 43 -186 45 -200 3 -14 26 -113 50 -220 25 -107 48
-206 50 -220 6 -30 32 -146 75 -330 35 -152 42 -184 58 -255 6 -27 22 -99 36
-160 14 -60 37 -159 50 -220 73 -328 215 -949 251 -1102 9 -38 18 -79 21 -93
4 -24 47 -213 78 -345 8 -33 37 -163 66 -290 70 -315 71 -318 135 -600 31
-137 60 -266 64 -285 12 -55 116 -511 150 -660 17 -74 34 -146 36 -160 3 -14
16 -70 29 -125 13 -55 26 -112 29 -127 3 -16 8 -40 12 -55 3 -16 14 -66 25
-113 34 -147 68 -301 70 -315 0 -2 5 -19 10 -37 5 -18 12 -46 15 -63 3 -16 16
-76 30 -133 14 -57 29 -122 33 -145 11 -53 66 -297 91 -402 10 -44 21 -91 24
-105 2 -14 13 -63 25 -110 11 -47 22 -97 24 -110 3 -14 12 -56 21 -95 9 -38
21 -88 26 -110 5 -22 13 -60 19 -85 41 -177 53 -228 57 -250 3 -14 12 -54 20
-90 9 -36 17 -72 19 -80 2 -8 15 -67 30 -130 14 -63 28 -126 31 -140 3 -14 11
-51 19 -83 8 -32 17 -72 20 -89 3 -16 15 -69 26 -116 11 -48 23 -97 25 -108 2
-12 18 -82 35 -155 17 -74 36 -161 44 -194 7 -33 32 -143 55 -245 59 -258 65
-282 90 -395 27 -120 25 -114 33 -145 3 -14 15 -65 26 -115 50 -225 73 -325
88 -385 8 -36 17 -76 19 -90 3 -14 7 -31 9 -38 3 -8 14 -57 26 -110 11 -53 22
-104 24 -112 9 -39 50 -220 81 -355 59 -263 65 -289 70 -315 3 -14 7 -31 9
-39 3 -7 12 -45 21 -85 8 -39 17 -78 19 -86 5 -24 37 -161 39 -174 2 -6 6 -22
9 -36 3 -14 13 -56 21 -95 9 -38 43 -187 75 -330 33 -143 62 -271 65 -285 4
-22 21 -97 71 -315 8 -38 23 -99 31 -135 9 -36 18 -76 21 -90 2 -14 20 -95 39
-180 20 -85 38 -166 40 -180 3 -14 9 -38 14 -55 5 -16 12 -43 14 -60 3 -16 22
-100 42 -185 42 -182 38 -165 59 -260 9 -41 18 -82 20 -90 2 -8 33 -145 69
-305 36 -159 79 -351 96 -425 18 -74 34 -146 36 -160 3 -14 14 -63 25 -110 11
-47 23 -96 25 -110 3 -14 16 -70 29 -125 13 -55 35 -154 49 -220 15 -66 29
-131 33 -145 3 -14 7 -30 9 -36 2 -13 34 -150 39 -174 2 -8 10 -44 18 -80 8
-36 34 -148 57 -250 23 -102 43 -194 46 -205 2 -11 13 -49 25 -85 119 -369
410 -641 778 -726 110 -26 149 -29 336 -28 195 1 283 15 430 71 299 113 532
359 634 668 12 39 24 77 26 85 2 8 15 69 30 135 15 66 29 128 31 138 2 10 5
26 8 35 3 9 7 28 10 42 3 14 21 95 41 180 20 85 38 164 40 175 3 11 21 92 40
180 20 88 38 168 40 178 2 10 6 26 9 35 3 9 8 33 11 52 3 19 10 51 16 70 10
37 135 588 143 630 2 14 14 66 26 115 12 50 23 98 25 107 2 9 29 128 60 265
31 136 59 258 61 270 4 20 87 385 119 524 16 68 23 97 31 139 3 13 14 63 25
110 30 126 150 659 160 705 4 22 35 159 69 305 33 146 72 317 86 380 31 138
28 128 49 215 9 39 19 81 22 95 2 14 13 63 24 110 29 124 37 159 76 330 19 85
36 162 38 170 2 8 11 47 19 85 17 77 75 331 81 355 3 12 48 212 70 310 2 8 27
119 55 245 76 334 120 527 125 550 2 11 29 130 60 265 31 135 63 276 71 314 8
38 24 106 34 151 10 44 21 92 24 105 3 14 26 115 51 225 25 110 48 213 51 229
3 16 7 32 9 36 2 4 6 20 9 36 3 16 17 79 31 139 14 61 37 162 51 225 14 63 27
122 30 130 9 37 23 97 28 120 10 54 67 307 76 340 9 32 115 501 126 560 3 13
14 63 25 110 12 47 23 96 25 110 3 14 10 43 15 65 5 22 12 51 15 64 2 12 12
53 20 90 9 36 18 75 20 86 4 20 59 264 135 595 22 96 42 186 45 200 3 13 14
61 24 106 11 45 22 97 25 115 3 18 8 36 11 40 3 5 7 21 9 36 6 35 13 67 59
268 20 89 38 170 41 180 2 11 43 191 90 400 48 209 89 388 91 398 2 10 5 26 8
35 3 9 8 29 11 45 12 62 17 87 41 187 14 58 32 137 40 175 9 39 17 77 19 85 9
37 59 257 86 379 16 73 31 136 33 140 2 3 7 24 11 46 8 46 13 70 15 70 2 0 6
18 14 60 3 17 17 82 32 145 14 63 27 122 29 130 2 8 13 58 25 110 29 127 50
220 56 250 3 14 14 61 24 105 15 62 95 411 115 505 2 8 10 45 19 81 8 37 17
78 20 90 4 22 16 76 77 339 11 47 24 103 29 125 6 22 12 51 15 65 5 31 56 257
90 400 13 58 26 116 29 130 3 14 25 115 51 225 25 110 47 209 49 220 2 11 11
49 20 85 23 96 74 321 80 350 4 20 70 310 92 405 3 11 8 38 13 60 5 22 29 130
55 241 25 111 48 218 52 239 3 21 8 47 10 59 2 11 7 37 10 56 2 19 9 58 14 85
5 28 12 70 15 95 3 25 10 68 15 95 5 28 12 70 15 95 3 25 8 56 10 70 5 35 34
238 40 280 3 19 7 58 10 85 3 28 7 61 10 75 2 14 6 48 10 75 3 28 7 64 9 80 2
17 7 62 11 100 4 39 8 81 10 95 2 14 7 57 10 95 3 39 8 90 10 115 3 25 7 86
10 135 3 50 8 117 10 150 3 33 7 123 10 200 4 77 8 183 10 235 23 555 23 970
0 1135 -2 17 -6 59 -9 95 -8 102 -28 245 -52 380 -9 47 -18 96 -20 110 -7 38
-23 116 -46 210 -11 47 -22 94 -24 105 -2 11 -24 91 -50 179 -94 324 -207 609
-369 930 -60 120 -114 226 -120 235 -70 116 -143 237 -155 256 -8 12 -26 41
-39 64 -14 22 -28 41 -33 41 -4 0 -8 7 -8 15 0 8 -4 15 -10 15 -5 0 -10 5 -10
11 0 12 -134 196 -244 334 -284 357 -641 703 -1008 977 -125 93 -304 218 -313
218 -3 0 -11 5 -18 10 -84 71 -549 321 -777 418 -243 103 -604 231 -720 256
-14 3 -77 19 -140 36 -63 16 -126 32 -140 35 -14 2 -70 13 -125 24 -55 11
-116 22 -136 25 -20 3 -42 7 -50 10 -8 3 -39 7 -69 11 -30 3 -68 7 -85 10 -60
9 -102 14 -166 20 -35 3 -77 8 -94 10 -99 13 -726 29 -738 19z m533 -3448 c19
-3 57 -8 84 -12 27 -3 58 -8 70 -10 12 -2 48 -9 81 -15 586 -104 1179 -425
1595 -864 98 -103 115 -122 185 -210 220 -277 379 -569 496 -915 26 -74 40
-125 89 -320 4 -19 11 -55 15 -80 4 -25 9 -54 11 -65 2 -11 6 -41 9 -66 3 -25
7 -55 10 -67 22 -114 22 -549 0 -685 -2 -12 -6 -42 -9 -67 -6 -47 -21 -137
-30 -180 -3 -14 -8 -38 -12 -55 -8 -41 -72 -271 -89 -320 -160 -471 -461 -922
-835 -1255 -47 -41 -87 -77 -90 -80 -32 -33 -252 -188 -395 -277 -34 -21 -286
-147 -354 -176 -192 -83 -496 -166 -721 -198 -41 -5 -86 -12 -100 -14 -41 -7
-250 -18 -330 -18 -111 1 -329 15 -388 27 -15 3 -49 8 -77 11 -156 19 -478
107 -640 175 -84 36 -106 46 -185 83 -415 199 -765 484 -1083 882 -129 162
-307 479 -401 717 -40 101 -119 351 -130 413 -40 211 -54 301 -63 400 -9 95
-9 476 0 555 4 30 8 73 11 95 6 57 23 155 47 265 155 716 585 1365 1189 1791
100 71 205 139 215 139 2 0 21 11 41 25 54 37 251 130 384 183 119 47 318 108
415 128 11 2 29 6 40 9 84 18 111 23 165 30 25 3 56 7 69 10 13 2 63 7 110 11
47 4 88 8 90 10 6 6 470 -3 511 -10z"/>
<path d="M36112 37484 c-113 -29 -244 -116 -358 -237 -38 -40 -76 -84 -84 -96
-8 -12 -46 -46 -85 -74 -38 -29 -71 -55 -73 -59 -2 -5 -8 -8 -13 -8 -22 0
-241 -174 -302 -240 -101 -109 -138 -202 -131 -325 2 -36 1 -65 -3 -64 -25 4
-37 -7 -58 -55 -13 -29 -26 -71 -30 -93 -3 -21 -7 -49 -10 -61 -20 -106 -21
-451 -1 -559 2 -10 7 -38 11 -63 20 -132 113 -318 257 -513 121 -162 279 -311
398 -372 41 -21 39 -19 125 -130 91 -118 149 -173 199 -187 53 -15 63 -23 71
-56 3 -15 35 -117 70 -227 76 -235 95 -311 100 -408 9 -177 -68 -315 -229
-411 -68 -41 -76 -43 -76 -18 0 21 -30 103 -56 154 -24 47 -81 81 -124 73 -58
-10 -101 -37 -260 -164 -111 -88 -137 -110 -240 -201 -36 -31 -108 -94 -160
-140 -365 -317 -550 -512 -686 -725 -115 -179 -187 -388 -196 -563 l-3 -54
-32 37 c-112 130 -221 349 -269 540 -4 17 -9 37 -11 45 -2 8 -5 24 -7 35 -2
11 -6 36 -9 55 -16 92 -20 145 -21 265 0 122 8 260 19 316 3 13 8 38 10 54 12
67 7 66 108 32 76 -25 109 -30 192 -31 91 -1 104 1 145 26 86 50 120 111 205
363 32 94 83 224 115 290 88 182 110 258 116 405 4 123 -20 236 -80 367 -55
120 -67 189 -81 483 -8 144 -24 289 -34 303 -2 1 -4 12 -7 25 -2 12 -13 47
-23 77 -19 55 -19 56 0 112 91 264 -178 570 -685 778 -142 59 -179 53 -326
-49 -75 -53 -95 -57 -210 -43 -62 8 -275 9 -330 2 -140 -18 -288 -63 -389
-117 -397 -214 -644 -679 -746 -1403 -3 -22 -8 -51 -10 -65 -3 -14 -7 -54 -10
-90 -3 -36 -8 -85 -10 -110 -23 -214 -29 -549 -22 -1115 0 -66 -2 -158 -6
-205 -39 -460 -22 -776 52 -992 l19 -56 -37 -6 c-182 -29 -365 -148 -511 -332
-112 -142 -244 -412 -331 -679 -27 -82 -105 -367 -115 -418 -2 -12 -7 -35 -11
-52 -4 -16 -7 -32 -8 -35 0 -3 -4 -21 -8 -40 -4 -19 -9 -46 -12 -60 -9 -39
-24 -122 -30 -160 -3 -19 -7 -46 -10 -60 -7 -38 -16 -92 -21 -125 -2 -16 -6
-41 -9 -54 -2 -13 -7 -49 -10 -80 -4 -31 -8 -63 -10 -71 -5 -16 -31 -232 -40
-320 -3 -30 -7 -73 -10 -95 -3 -22 -7 -67 -10 -100 -3 -33 -7 -82 -10 -110 -8
-80 -17 -186 -20 -240 -1 -27 -5 -84 -9 -125 -3 -41 -8 -113 -11 -160 -3 -47
-7 -116 -10 -155 -2 -38 -7 -131 -10 -205 -3 -74 -8 -175 -10 -225 -2 -49 -6
-151 -10 -225 -9 -226 -21 -737 -30 -1305 -16 -990 -17 -1044 -30 -1420 -7
-202 -21 -458 -30 -565 -3 -30 -7 -84 -10 -120 -3 -36 -8 -81 -11 -100 -3 -19
-7 -53 -9 -75 -7 -54 -26 -185 -31 -210 -3 -11 -7 -103 -9 -205 -3 -102 -7
-197 -9 -212 -18 -117 -38 -244 -42 -262 -2 -11 -6 -32 -9 -46 -3 -14 -7 -34
-9 -45 -13 -60 -36 -164 -40 -185 -2 -14 -16 -77 -30 -140 -14 -63 -27 -128
-30 -145 -3 -16 -8 -41 -11 -55 -38 -189 -50 -317 -48 -515 l1 -160 37 -75
c159 -323 399 -568 618 -634 42 -12 157 -22 157 -12 0 2 -18 51 -40 107 -22
57 -40 104 -40 105 0 0 30 1 68 0 46 -1 80 5 109 18 86 38 144 164 168 361 7
59 8 342 1 400 -2 17 -7 62 -11 100 -5 61 -16 142 -30 225 -2 14 -7 41 -10 60
-5 37 -20 107 -35 175 -29 129 -43 180 -70 260 -31 92 -32 101 -16 325 2 25 7
92 10 150 4 58 9 130 11 160 2 30 6 91 9 135 4 44 8 112 11 150 5 65 8 114 20
290 5 72 12 170 20 265 2 30 7 91 10 135 3 44 8 98 10 120 2 22 7 85 10 140 3
55 8 111 10 125 2 14 6 59 10 100 3 41 8 95 10 120 3 25 7 79 11 120 3 41 8
91 9 110 2 19 6 67 10 105 3 39 7 84 10 100 2 17 6 66 10 110 3 44 8 91 10
105 2 14 7 61 11 105 3 44 8 87 9 96 2 9 6 52 10 95 4 43 9 88 11 99 2 11 6
47 9 80 3 33 8 78 11 100 3 22 7 56 9 75 4 45 21 192 30 260 6 45 13 101 20
170 4 30 8 66 10 80 2 14 9 61 14 105 6 44 13 97 16 118 5 41 11 86 21 162 3
28 8 57 9 66 2 9 6 40 10 70 3 30 8 61 10 69 2 8 7 40 10 70 4 30 8 57 10 60
1 3 6 32 9 65 4 33 9 67 11 75 2 8 6 33 10 54 3 22 8 42 10 44 9 9 -7 -387
-20 -508 -10 -94 -27 -235 -31 -253 -2 -12 -6 -39 -9 -62 -9 -57 -60 -288 -81
-360 -34 -117 -15 -173 65 -192 32 -8 36 -12 35 -38 -2 -33 -12 -132 -19 -183
-3 -18 -7 -54 -10 -80 -3 -26 -7 -60 -9 -77 -3 -16 -7 -57 -11 -90 -4 -33 -9
-71 -11 -85 -2 -14 -6 -56 -9 -95 -4 -38 -8 -81 -10 -95 -2 -14 -6 -54 -10
-90 -3 -36 -8 -81 -10 -100 -7 -64 -14 -134 -20 -200 -3 -36 -8 -81 -10 -100
-2 -19 -7 -71 -10 -115 -3 -44 -7 -98 -10 -120 -12 -106 -16 -155 -29 -355 -3
-36 -7 -101 -11 -145 -3 -44 -7 -109 -10 -145 -4 -60 -10 -154 -20 -350 -22
-427 -23 -1208 -1 -1340 3 -14 7 -63 11 -110 3 -47 7 -98 10 -115 7 -57 18
-130 21 -140 1 -5 5 -30 9 -55 20 -132 75 -313 117 -388 35 -61 88 -121 121
-138 29 -16 136 -20 222 -9 134 17 425 23 531 11 104 -11 206 -44 277 -88 41
-27 47 -34 43 -57 -3 -14 -8 -46 -11 -71 -3 -25 -10 -70 -15 -100 -5 -30 -12
-73 -15 -95 -3 -22 -10 -65 -15 -95 -5 -30 -12 -75 -15 -100 -3 -25 -17 -112
-31 -195 -14 -82 -27 -163 -30 -180 -2 -16 -9 -55 -14 -85 -5 -30 -12 -72 -14
-92 -2 -20 -9 -61 -15 -90 -11 -57 -20 -111 -27 -168 -2 -19 -9 -57 -14 -85
-5 -27 -12 -68 -15 -90 -3 -22 -8 -51 -11 -65 -2 -14 -6 -36 -9 -50 -2 -14
-11 -68 -19 -120 -9 -52 -18 -113 -21 -135 -4 -22 -15 -92 -25 -155 -10 -63
-22 -137 -26 -165 -3 -27 -8 -59 -10 -70 -2 -11 -7 -40 -10 -65 -3 -25 -7 -52
-9 -60 -1 -8 -6 -40 -10 -70 -4 -30 -9 -64 -11 -74 -3 -17 -18 -126 -29 -203
-6 -50 -26 -197 -30 -223 -2 -14 -6 -50 -10 -80 -4 -30 -8 -66 -10 -80 -2 -14
-6 -54 -10 -90 -3 -36 -8 -72 -10 -80 -2 -8 -7 -49 -10 -90 -4 -41 -9 -84 -11
-95 -5 -24 -12 -209 -19 -520 -14 -625 -27 -762 -85 -918 -12 -31 -40 -81 -63
-110 -71 -90 -107 -121 -385 -325 -262 -192 -369 -274 -540 -416 l-123 -101 5
-70 c11 -148 55 -325 141 -570 218 -616 232 -675 240 -1018 6 -230 12 -295 36
-372 38 -123 188 -305 301 -365 35 -18 66 -38 70 -44 7 -10 3 -108 -6 -151 -2
-11 -7 -42 -10 -68 -4 -27 -9 -59 -12 -70 -4 -21 -8 -48 -19 -127 -4 -33 -1
-37 43 -62 l47 -27 -14470 -1 c-7958 -1 -14495 -3 -14525 -5 -126 -8 -190 -16
-325 -40 -429 -75 -845 -251 -1205 -509 -47 -33 -94 -68 -105 -77 -376 -310
-631 -627 -824 -1024 -107 -220 -202 -494 -235 -680 -6 -29 -10 -50 -21 -105
-11 -57 -24 -159 -34 -275 -8 -86 -6 -717 2 -750 2 -11 8 -45 12 -75 19 -150
82 -378 149 -540 51 -121 161 -324 218 -400 134 -181 218 -275 359 -405 54
-49 249 -196 286 -216 16 -8 43 -24 62 -37 109 -72 479 -225 563 -233 4 0 22
-5 40 -10 18 -5 44 -11 58 -14 14 -3 36 -7 50 -10 66 -13 151 -25 230 -31 97
-8 44854 -7 44935 0 39 4 82 9 98 12 15 2 42 6 60 9 146 24 343 77 444 121 17
8 34 14 38 14 4 0 66 29 139 64 259 126 541 344 708 546 20 25 52 64 71 87
115 139 255 392 331 595 27 74 81 262 90 318 4 19 14 80 23 135 14 80 17 169
17 450 1 350 -3 433 -30 595 -3 19 -8 46 -10 60 -2 14 -9 45 -14 70 -6 25 -12
54 -14 65 -9 44 -19 84 -43 165 -14 46 -26 92 -28 101 -2 8 -29 81 -60 160
-196 493 -523 930 -935 1249 -25 19 -47 37 -50 41 -16 19 -283 186 -380 237
-242 128 -570 247 -765 278 -22 3 -42 7 -45 9 -3 2 -26 6 -50 10 -25 4 -52 8
-60 10 -8 2 -37 6 -65 9 -27 4 -66 10 -85 13 -19 4 -1382 8 -3029 10 l-2994 3
-36 32 c-180 157 -402 372 -518 504 -380 431 -579 842 -638 1314 -13 104 -13
445 0 637 9 142 15 212 20 246 2 18 7 55 10 82 20 159 52 366 80 505 2 14 7
36 10 50 2 14 7 41 10 60 3 19 17 85 30 145 13 61 26 124 29 140 3 17 12 55
20 85 41 154 87 327 90 345 27 133 48 245 51 265 2 14 9 50 15 80 6 30 13 70
15 89 7 50 15 104 20 131 3 13 7 42 10 65 7 49 13 84 25 155 5 30 12 73 15 95
3 22 8 54 11 70 3 17 7 41 9 55 3 23 19 114 30 170 3 14 8 41 11 60 18 97 32
160 64 285 17 66 33 130 35 141 26 115 147 406 216 517 31 50 39 74 104 296
48 166 131 510 150 621 3 19 12 69 20 110 24 119 28 142 41 225 5 37 15 100
24 155 5 30 12 75 15 100 3 25 7 61 10 80 3 19 7 53 10 75 2 22 7 60 11 85 3
25 7 61 9 80 10 110 16 169 21 205 3 22 7 65 8 95 2 30 7 84 10 120 14 164 17
203 21 286 2 49 7 123 10 164 3 41 7 134 10 205 3 72 7 182 10 245 11 246 16
544 30 1575 7 527 12 712 30 1155 6 137 19 362 30 500 3 30 7 89 10 130 3 41
7 94 10 118 12 104 15 131 20 187 3 33 8 71 10 85 2 14 6 50 10 80 5 49 30
226 40 289 5 29 1 26 55 40 378 100 607 117 837 61 55 -13 150 -49 189 -71 71
-39 79 -44 84 -49 3 -3 23 -18 45 -34 125 -92 269 -281 375 -495 54 -106 141
-310 161 -371 4 -14 24 -70 44 -125 20 -55 38 -104 39 -110 2 -5 6 -17 9 -25
3 -8 20 -57 38 -108 26 -77 34 -91 45 -80 17 17 41 114 49 198 10 106 36 200
56 200 4 0 6 -11 4 -25 -1 -14 1 -25 6 -25 7 0 18 43 35 136 19 103 24 270 10
356 -13 78 -26 136 -40 178 -8 25 -42 158 -75 295 -74 303 -158 634 -176 695
-7 25 -25 92 -40 150 -145 554 -399 1414 -616 2080 -79 240 -228 689 -239 715
-4 11 -17 47 -28 80 -60 178 -214 611 -294 830 -23 61 -54 146 -70 190 -15 44
-31 87 -35 95 -3 8 -7 20 -9 25 -1 6 -16 45 -32 88 l-31 78 22 9 c79 31 852
414 1162 575 72 38 148 76 170 87 22 10 49 24 60 30 11 7 209 107 440 223 393
197 594 295 775 378 41 19 102 47 135 62 264 121 707 300 891 360 230 75 339
146 391 255 17 36 23 127 11 170 -7 24 -1 28 95 79 259 136 649 380 871 545
49 36 92 66 97 66 4 0 14 -8 21 -18 20 -28 98 -78 153 -97 57 -21 232 -29 305
-16 25 5 69 12 99 15 29 4 57 8 60 11 4 2 25 6 47 9 21 2 62 8 89 12 83 13
227 8 287 -10 31 -9 79 -31 107 -50 99 -67 224 -70 251 -7 12 30 10 70 -7 111
-20 48 -134 138 -299 237 -138 83 -214 134 -214 144 0 5 51 33 113 63 295 142
487 136 643 -19 29 -30 101 -125 158 -213 60 -91 125 -177 153 -202 79 -71
166 -99 260 -85 34 5 42 11 48 33 19 76 24 186 12 277 -31 245 -217 491 -439
581 -48 19 -59 29 -35 32 26 3 577 191 658 225 153 64 279 144 344 219 38 45
70 97 62 104 -2 2 -55 -9 -118 -25 -118 -30 -335 -80 -379 -87 -14 -2 -36 -7
-50 -10 -14 -3 -36 -8 -50 -10 -14 -2 -61 -11 -105 -20 -44 -9 -91 -17 -105
-19 -14 -2 -41 -6 -60 -10 -79 -14 -108 -18 -265 -41 -16 -2 -41 -6 -55 -9
-14 -2 -45 -7 -70 -10 -25 -4 -56 -8 -70 -10 -14 -2 -49 -7 -79 -10 -30 -4
-62 -8 -72 -10 -10 -2 -42 -6 -71 -9 -29 -4 -62 -8 -73 -10 -11 -2 -49 -7 -85
-11 -36 -4 -72 -9 -81 -10 -9 -2 -40 -6 -70 -10 -30 -3 -65 -8 -79 -10 -14 -2
-50 -7 -80 -10 -30 -3 -82 -10 -115 -15 -33 -5 -80 -12 -105 -15 -25 -3 -56
-8 -70 -10 -14 -2 -49 -7 -79 -10 -30 -3 -57 -8 -60 -10 -4 -2 -31 -6 -61 -9
-75 -9 -301 -45 -376 -60 -12 -2 -37 -7 -55 -10 -19 -3 -45 -8 -59 -11 -14 -3
-36 -7 -50 -10 -14 -3 -61 -12 -105 -21 -287 -57 -648 -157 -908 -251 -54 -20
-99 -34 -101 -32 -2 2 -1 25 3 50 4 25 6 70 5 100 -7 221 -154 283 -455 194
-46 -14 -93 -29 -104 -34 -11 -5 -51 -21 -90 -36 -66 -26 -438 -208 -460 -224
-5 -5 -39 -24 -75 -43 -36 -20 -157 -89 -270 -153 -188 -109 -386 -214 -631
-336 -122 -61 -315 -138 -449 -179 -130 -39 -134 -40 -166 -46 -14 -3 -51 -11
-82 -19 -31 -8 -77 -18 -102 -21 -25 -3 -47 -8 -50 -9 -3 -2 -33 -6 -65 -10
-33 -3 -67 -8 -75 -10 -102 -26 -704 -26 -840 0 -82 16 -247 21 -355 11 -120
-10 -261 -43 -530 -121 -358 -104 -452 -127 -572 -139 -29 -3 -74 -8 -100 -11
-83 -9 -203 -14 -444 -20 -239 -5 -424 -13 -469 -20 -14 -2 -52 -7 -85 -10
-33 -3 -71 -7 -85 -10 -32 -7 -69 -14 -100 -20 -14 -3 -41 -9 -60 -15 -31 -9
-37 -7 -53 12 -24 29 -10 2 19 -37 24 -33 67 -117 78 -152 7 -21 4 -21 -71
-21 -43 0 -142 -1 -221 -2 -79 -1 -145 0 -148 3 -8 8 -15 50 -15 85 0 20 19
68 48 120 l47 87 2 255 c1 140 4 291 8 335 17 206 21 457 11 575 -5 53 -28
192 -39 235 -16 62 -32 108 -53 150 -48 94 -72 183 -89 330 -2 22 -7 58 -10
80 -3 22 -7 58 -10 80 -16 127 -72 262 -139 340 -40 46 -42 51 -16 60 29 9 90
81 113 132 55 124 -35 284 -210 376 -80 42 -195 75 -254 73 -25 -1 -38 2 -38
11 0 7 4 13 10 13 14 0 39 53 42 91 6 85 -22 135 -99 173 -138 68 -313 49
-548 -60 -43 -19 -80 -32 -83 -29 -3 3 -7 16 -9 28 -6 37 -59 140 -88 171 -54
55 -146 75 -243 50z m-1405 -10834 c1 -98 0 -96 -21 28 -11 65 -11 72 3 70 13
-3 16 -21 18 -98z m226 -505 c37 -160 63 -268 149 -610 93 -375 93 -375 107
-440 5 -22 23 -101 41 -175 18 -74 34 -146 36 -160 3 -14 9 -38 14 -55 5 -16
11 -41 14 -55 2 -14 20 -104 39 -200 42 -203 42 -205 62 -329 18 -107 21 -129
30 -226 4 -38 8 -81 10 -95 2 -14 6 -56 10 -95 6 -76 14 -155 20 -195 2 -14 7
-50 10 -80 8 -66 12 -95 36 -235 14 -82 65 -273 90 -337 50 -130 125 -248 198
-310 59 -51 142 -88 194 -88 69 0 93 -30 132 -165 21 -72 52 -132 74 -140 36
-15 64 -15 80 -1 9 8 35 19 58 25 33 9 50 8 89 -5 44 -15 92 -40 104 -54 20
-24 198 -152 236 -171 53 -25 136 -36 174 -21 23 9 26 6 46 -47 36 -92 37 -96
40 -106 3 -15 307 -807 344 -900 33 -80 51 -127 95 -240 46 -120 126 -321 144
-360 10 -22 31 -74 45 -115 66 -184 200 -218 412 -103 l62 33 -4 -42 c-1 -24
-5 -72 -8 -108 -3 -36 -8 -99 -11 -140 -3 -41 -8 -91 -10 -110 -2 -19 -7 -71
-10 -115 -4 -44 -8 -93 -10 -110 -2 -16 -6 -59 -10 -95 -3 -36 -8 -81 -10
-100 -2 -19 -7 -62 -10 -95 -5 -53 -17 -156 -30 -265 -2 -19 -7 -57 -10 -85
-7 -64 -13 -112 -25 -200 -5 -38 -12 -92 -15 -120 -3 -27 -8 -61 -10 -75 -2
-14 -6 -47 -10 -75 -7 -58 -8 -63 -35 -249 -11 -76 -22 -156 -25 -178 -3 -22
-7 -52 -10 -67 -2 -14 -7 -46 -10 -71 -3 -25 -7 -52 -10 -60 -2 -8 -6 -35 -9
-60 -3 -25 -10 -68 -15 -97 -6 -29 -13 -81 -17 -115 -3 -35 -8 -67 -11 -71 -2
-4 -6 -22 -9 -40 -4 -34 -42 -276 -50 -317 -2 -14 -13 -79 -24 -145 -11 -66
-22 -129 -24 -140 -8 -45 -16 -92 -22 -129 -3 -21 -8 -48 -10 -60 -2 -11 -7
-37 -10 -56 -3 -19 -14 -80 -24 -135 -10 -55 -21 -118 -24 -140 -4 -22 -13
-76 -21 -120 -20 -112 -23 -129 -40 -230 -26 -147 -23 -133 -40 -215 -2 -14
-6 -36 -9 -50 -2 -14 -11 -63 -20 -110 -8 -47 -18 -102 -22 -124 -3 -21 -8
-48 -10 -60 -4 -22 -20 -112 -29 -161 -2 -16 -18 -104 -35 -195 -16 -90 -33
-185 -36 -210 -3 -25 -8 -48 -10 -51 -2 -4 -38 -202 -49 -279 -2 -14 -7 -36
-10 -50 -3 -14 -7 -41 -10 -60 -3 -19 -7 -46 -10 -60 -8 -46 -44 -254 -50
-290 -3 -19 -7 -46 -10 -60 -3 -14 -7 -41 -10 -60 -3 -19 -8 -42 -10 -50 -2
-8 -7 -40 -10 -70 -4 -30 -8 -57 -10 -60 -2 -3 -6 -30 -10 -60 -4 -30 -8 -57
-10 -60 -2 -3 -6 -25 -9 -50 -3 -25 -8 -54 -10 -65 -2 -11 -7 -40 -10 -65 -3
-25 -8 -56 -11 -70 -10 -47 -19 -125 -20 -157 l0 -33 -1908 0 c-1753 0 -1911
1 -1940 16 -203 105 -397 300 -453 455 -45 125 -49 242 -16 389 6 25 13 59 16
75 9 44 15 77 21 105 3 14 7 39 10 55 3 17 10 53 15 80 5 28 12 68 16 90 3 22
7 47 9 55 2 8 7 33 10 55 3 23 7 52 10 65 3 13 7 42 10 65 3 22 12 81 20 130
8 50 17 110 20 135 3 25 8 52 10 60 2 8 7 39 10 69 4 30 9 63 11 75 2 12 6 37
9 56 7 59 57 373 70 445 8 45 37 197 41 220 2 11 9 45 16 75 6 30 12 57 13 60
2 10 15 76 19 97 3 12 16 66 31 120 15 54 28 105 30 113 22 104 130 411 195
555 103 229 270 502 385 631 6 6 30 35 55 65 162 192 341 343 649 547 137 92
352 250 406 299 11 10 47 41 80 68 87 73 270 258 342 346 190 233 318 487 367
732 46 223 39 507 -18 742 -1 6 -6 26 -10 45 -17 78 -81 283 -127 406 -83 224
-186 455 -381 854 -61 124 -146 299 -191 390 -44 91 -81 168 -83 171 -2 4 150
7 338 8 188 1 344 4 346 6 9 9 0 230 -13 295 -2 14 -7 45 -11 70 -19 141 -97
396 -254 835 -40 110 -87 252 -106 315 -19 63 -39 129 -44 145 -11 35 -46 209
-55 275 -4 25 -9 59 -12 75 -2 17 -5 119 -5 227 -1 108 -5 223 -10 255 -4 32
-10 72 -13 88 -8 55 -55 289 -74 375 -11 47 -22 96 -24 110 -6 33 -13 61 -31
140 -9 36 -18 82 -22 104 -3 21 -8 48 -10 60 -2 11 -7 35 -9 51 -3 17 -10 53
-15 82 -38 213 -28 432 25 533 19 37 56 73 65 63 4 -4 14 -39 23 -78z m1890
-3825 c9 -25 38 -105 66 -179 28 -73 51 -136 51 -140 0 -3 -22 17 -48 46 -26
28 -65 71 -87 95 -46 49 -96 125 -118 180 l-15 37 36 -21 c20 -11 41 -24 47
-29 11 -11 35 -12 34 -1 -1 4 -1 23 0 42 1 42 14 31 34 -30z m-2734 -2627 c-2
-91 -25 -166 -70 -228 -18 -25 -33 -44 -35 -42 -3 3 21 96 40 157 8 25 24 78
36 118 11 39 23 72 26 72 3 0 4 -35 3 -77z"/>
<path d="M12757 34554 c-1 -1 -61 -5 -134 -8 -73 -4 -140 -9 -150 -10 -10 -2
-49 -7 -88 -10 -38 -4 -81 -9 -95 -11 -14 -2 -43 -7 -65 -10 -106 -14 -282
-49 -390 -76 -66 -17 -127 -32 -135 -34 -32 -7 -256 -76 -275 -85 -11 -4 -54
-21 -95 -35 -79 -29 -96 -36 -200 -80 -468 -200 -886 -457 -1230 -754 -447
-388 -801 -838 -1064 -1356 -69 -136 -99 -200 -167 -360 -103 -243 -233 -699
-264 -925 -3 -25 -8 -52 -10 -60 -4 -15 -10 -56 -20 -145 -4 -27 -8 -61 -10
-75 -5 -31 -14 -150 -20 -245 -5 -85 -5 -420 0 -490 8 -113 16 -212 20 -240 2
-16 7 -52 10 -80 15 -126 39 -258 70 -396 15 -63 28 -121 30 -129 32 -149 137
-459 222 -658 98 -233 452 -915 634 -1224 192 -327 574 -903 728 -1099 42 -54
128 -163 191 -245 63 -81 168 -215 233 -298 65 -83 128 -164 140 -180 12 -16
27 -34 32 -40 6 -6 39 -49 75 -96 35 -47 67 -87 70 -90 3 -3 37 -45 75 -95 38
-49 75 -97 82 -105 27 -34 140 -179 308 -395 99 -126 184 -235 190 -241 5 -7
27 -34 47 -60 47 -61 296 -381 483 -619 78 -99 166 -212 196 -250 30 -39 117
-151 194 -249 77 -98 149 -190 160 -205 11 -16 34 -46 51 -67 18 -21 85 -107
150 -191 66 -83 180 -229 254 -324 74 -95 158 -202 186 -238 28 -36 165 -212
305 -391 140 -179 320 -408 399 -510 79 -102 148 -189 153 -195 15 -19 183
-234 277 -355 52 -68 100 -128 105 -134 6 -6 24 -29 41 -51 39 -50 392 -504
608 -780 13 -16 50 -64 83 -105 32 -41 146 -187 253 -325 107 -137 200 -257
207 -265 7 -8 51 -64 98 -125 47 -60 91 -117 98 -125 7 -8 28 -35 47 -60 19
-25 40 -51 47 -58 7 -7 13 -16 13 -20 0 -4 12 -20 28 -37 15 -16 47 -57 72
-90 25 -33 47 -62 50 -65 3 -3 69 -86 146 -185 77 -99 223 -286 324 -415 356
-456 678 -867 829 -1060 83 -107 163 -208 176 -225 13 -16 36 -46 52 -66 15
-20 39 -50 51 -67 13 -17 71 -91 128 -164 58 -73 162 -207 232 -297 70 -89
134 -171 142 -181 8 -10 48 -61 87 -112 40 -51 144 -183 230 -294 87 -110 168
-214 180 -230 12 -16 31 -40 42 -54 11 -14 50 -63 87 -110 36 -47 77 -98 90
-115 94 -119 202 -259 237 -305 22 -30 43 -57 47 -60 3 -3 21 -25 40 -50 19
-25 39 -50 45 -57 13 -16 14 -18 135 -173 58 -74 133 -163 168 -198 115 -116
273 -201 437 -235 66 -14 278 -16 330 -4 80 19 120 32 187 59 68 26 77 33 73
52 -3 11 -21 89 -41 171 -20 83 -37 158 -39 167 -6 29 -65 271 -76 312 -11 39
-15 59 -25 104 -2 12 -23 98 -45 190 -22 92 -42 174 -44 182 -2 8 -11 47 -20
85 -9 39 -18 77 -20 85 -2 8 -8 35 -14 60 -7 25 -14 56 -17 70 -6 27 -8 32
-17 70 -7 26 -45 183 -52 210 -2 8 -11 47 -20 85 -8 39 -23 99 -31 134 -9 36
-17 72 -19 80 -2 9 -18 75 -35 146 -18 72 -33 137 -35 145 -7 31 -47 200 -80
335 -35 144 -154 638 -160 665 -2 8 -9 38 -15 65 -6 28 -13 57 -15 65 -2 8
-20 80 -39 160 -20 80 -38 154 -40 165 -2 11 -13 58 -25 105 -17 73 -82 344
-97 405 -3 11 -7 29 -9 40 -3 11 -20 84 -39 162 -20 78 -37 152 -40 165 -2 12
-25 109 -51 213 -26 105 -49 200 -51 212 -2 13 -29 125 -60 250 -31 126 -57
235 -59 243 -21 94 -29 129 -50 215 -13 55 -38 159 -55 230 -18 72 -33 137
-35 145 -2 8 -8 33 -13 55 -6 22 -13 53 -16 68 -3 16 -9 43 -15 60 -5 18 -19
75 -30 127 -12 52 -26 111 -31 130 -6 19 -21 82 -34 140 -14 58 -41 170 -60
250 -19 80 -49 204 -66 275 -17 72 -45 186 -61 255 -17 69 -32 132 -34 140 -8
35 -46 196 -80 335 -20 83 -38 157 -40 165 -2 8 -20 83 -40 165 -20 83 -38
158 -40 168 -2 10 -6 26 -9 35 -3 9 -8 32 -11 51 -3 19 -8 37 -10 41 -2 4 -7
22 -10 41 -3 19 -17 79 -31 134 -14 55 -28 111 -30 125 -3 14 -10 43 -16 65
-7 22 -12 42 -13 45 0 3 -5 23 -10 45 -4 22 -9 45 -11 50 -1 6 -14 62 -29 124
-14 63 -28 118 -30 121 -2 4 -6 18 -9 33 -6 33 -48 210 -88 372 -16 66 -31
127 -33 135 -2 8 -15 65 -29 125 -15 61 -29 120 -31 133 -8 38 -12 54 -35 142
-12 47 -24 96 -26 110 -3 14 -7 33 -10 42 -3 9 -7 25 -9 35 -2 10 -20 86 -40
168 -20 83 -38 159 -41 170 -2 11 -10 47 -18 80 -18 71 -67 274 -71 295 -2 8
-16 65 -30 125 -15 61 -29 119 -31 130 -5 26 0 5 -104 435 -50 206 -93 382
-95 390 -1 8 -13 56 -25 105 -12 50 -23 100 -26 111 -4 20 -20 86 -143 597
-28 115 -53 218 -56 230 -2 12 -9 42 -16 67 -6 25 -13 55 -15 67 -4 19 -96
403 -111 463 -3 14 -8 34 -10 45 -3 11 -6 25 -7 30 -11 39 -20 79 -55 225 -34
141 -186 776 -196 820 -2 8 -29 121 -60 250 -31 129 -58 242 -60 250 -2 8 -20
83 -40 165 -20 83 -38 159 -41 170 -2 11 -18 76 -35 145 -17 69 -33 134 -35
145 -2 11 -6 29 -8 40 -2 11 -12 49 -21 85 -9 36 -19 76 -22 90 -2 14 -16 70
-30 125 -13 55 -27 111 -29 125 -3 14 -7 33 -10 42 -3 9 -7 25 -9 35 -2 10
-22 95 -45 188 -43 180 -70 290 -75 315 -2 8 -8 35 -15 60 -7 25 -14 56 -16
69 -3 12 -23 96 -45 185 -22 88 -42 174 -45 190 -3 16 -7 32 -9 36 -2 3 -6 17
-9 31 -2 13 -16 72 -30 132 -14 59 -28 118 -30 130 -3 12 -15 60 -27 107 -11
47 -22 92 -24 100 -9 41 -29 125 -69 292 -66 270 -107 441 -111 459 -2 8 -10
44 -19 80 -8 35 -35 147 -60 249 -24 102 -56 235 -71 297 l-27 112 -97 79
c-188 154 -346 263 -579 403 -61 36 -254 140 -299 160 -26 12 -75 34 -108 49
-106 49 -131 59 -247 104 -219 85 -505 168 -723 210 -130 25 -137 26 -205 37
-36 5 -76 11 -90 14 -14 2 -56 7 -95 11 -38 3 -78 8 -87 10 -52 9 -532 25
-541 18z"/>
<path d="M6200 26178 c-377 -167 -553 -266 -786 -444 -309 -236 -633 -587
-808 -874 -15 -25 -32 -54 -39 -65 -61 -99 -138 -249 -196 -383 -65 -149 -161
-446 -187 -577 -2 -11 -6 -31 -9 -45 -11 -50 -15 -76 -20 -110 -3 -19 -7 -44
-10 -55 -2 -11 -7 -45 -10 -75 -3 -30 -10 -89 -15 -130 -9 -78 -6 -559 4 -620
3 -19 8 -57 11 -85 20 -181 110 -555 164 -680 5 -11 19 -47 32 -80 40 -107
116 -268 179 -380 34 -60 67 -119 74 -130 37 -66 191 -283 244 -343 11 -13 35
-42 54 -65 51 -64 441 -457 594 -597 75 -69 142 -130 148 -135 6 -6 56 -48
111 -94 55 -46 111 -93 125 -105 46 -39 214 -172 320 -253 58 -44 319 -223
580 -398 261 -176 477 -322 478 -327 2 -4 8 -8 14 -8 9 0 97 -58 108 -71 3 -3
10 -8 15 -10 6 -2 83 -53 173 -114 89 -60 170 -114 179 -120 9 -5 24 -16 32
-22 9 -7 156 -106 326 -220 171 -115 424 -284 563 -378 139 -93 260 -174 270
-180 9 -5 19 -12 22 -15 3 -3 120 -82 260 -176 267 -179 549 -369 1115 -749
187 -126 448 -301 580 -390 132 -89 371 -249 530 -356 160 -108 380 -256 490
-329 110 -74 201 -138 203 -142 2 -4 7 -8 12 -8 8 0 51 -29 309 -203 46 -31
87 -57 91 -57 5 0 10 -3 12 -8 2 -4 158 -111 348 -239 190 -127 420 -282 513
-344 92 -63 192 -130 221 -149 30 -19 184 -122 343 -229 158 -107 430 -290
603 -406 173 -117 447 -301 608 -409 295 -199 391 -253 492 -276 69 -16 187
-16 265 0 66 14 209 79 243 110 12 11 25 20 29 21 4 0 18 13 30 29 l23 28 -87
109 c-48 59 -93 115 -100 123 -23 29 -108 135 -120 150 -6 8 -35 44 -65 80
-29 35 -64 79 -78 97 -75 96 -125 159 -130 163 -3 3 -21 25 -40 50 -19 25 -37
47 -40 50 -3 3 -30 37 -60 75 -30 39 -57 72 -60 75 -3 3 -68 84 -145 180 -76
96 -142 177 -145 180 -3 3 -13 14 -21 26 -8 11 -30 41 -51 65 -20 24 -323 402
-673 839 -350 437 -644 804 -653 815 -9 11 -33 40 -52 65 -19 25 -37 47 -40
50 -3 3 -68 84 -145 180 -77 96 -145 182 -152 190 -81 100 -239 298 -477 595
-158 198 -295 369 -304 380 -10 11 -53 65 -97 120 -44 55 -85 107 -92 115 -7
8 -46 58 -88 110 -201 250 -393 490 -420 524 -16 21 -34 44 -40 50 -5 6 -28
34 -50 61 -21 28 -42 52 -45 55 -4 3 -31 37 -61 76 -54 70 -209 265 -219 274
-3 3 -130 161 -283 352 -152 191 -284 356 -292 365 -8 10 -37 47 -66 83 -28
36 -61 76 -73 90 -11 14 -33 42 -48 62 -15 20 -34 42 -41 50 -7 7 -19 22 -27
34 -8 11 -32 41 -52 65 -20 24 -101 125 -180 224 -78 99 -147 185 -153 191 -5
6 -23 28 -40 50 -30 38 -177 221 -945 1178 -234 291 -434 540 -444 555 -11 14
-49 61 -84 103 -35 43 -100 124 -145 181 -45 57 -118 148 -162 203 -44 54 -92
115 -106 134 -15 19 -35 44 -45 55 -11 11 -32 38 -48 60 -17 22 -33 42 -36 45
-3 3 -22 26 -41 51 -19 25 -53 67 -76 95 -37 44 -1497 1864 -1662 2072 -36 46
-78 98 -93 115 -15 18 -47 58 -70 89 -44 59 -56 64 -98 46z"/>
<path d="M4658 18437 c-15 -12 -44 -36 -65 -54 -49 -40 -177 -170 -200 -202
-9 -14 -25 -33 -36 -44 -36 -36 -138 -203 -197 -322 -50 -101 -110 -263 -126
-340 -2 -11 -7 -33 -11 -50 -4 -16 -7 -32 -8 -35 -1 -3 -5 -32 -9 -65 -5 -33
-10 -71 -12 -85 -6 -36 -6 -321 0 -346 2 -12 7 -45 11 -75 3 -30 17 -97 30
-149 93 -374 297 -693 595 -929 119 -94 210 -148 442 -261 370 -179 546 -240
1323 -455 143 -40 512 -144 990 -280 187 -53 347 -99 355 -101 36 -9 778 -219
860 -243 36 -11 85 -25 110 -31 25 -6 64 -18 87 -25 23 -8 52 -17 65 -19 13
-3 48 -12 78 -21 81 -24 80 -24 285 -82 105 -30 197 -56 205 -58 8 -1 96 -26
195 -55 99 -29 187 -53 195 -55 14 -3 223 -62 300 -85 67 -20 815 -232 830
-235 8 -2 80 -22 160 -45 80 -23 153 -44 163 -46 10 -2 27 -6 37 -9 25 -8 98
-8 140 0 78 14 180 87 214 154 l16 30 -61 40 c-34 23 -65 41 -69 41 -5 0 -10
3 -12 8 -2 4 -34 28 -73 53 -38 26 -387 257 -775 514 -388 258 -887 589 -1110
737 -223 147 -412 272 -420 278 -38 26 -995 660 -1000 662 -3 2 -229 153 -504
336 -274 182 -502 332 -507 332 -4 0 -9 4 -11 9 -1 5 -24 22 -51 37 -26 16
-84 54 -130 85 -45 31 -311 209 -592 394 -280 186 -604 401 -718 477 -114 76
-212 138 -217 138 -4 0 -10 4 -12 8 -4 10 -216 152 -228 152 -4 0 -10 3 -12 8
-1 4 -77 56 -168 116 -91 60 -196 130 -235 156 -38 25 -75 49 -81 53 -5 3 -22
-4 -36 -16z"/>
</g>
</svg>
